<svg width="18" height="16" viewBox="0 0 18 16" fill="none" xmlns="http://www.w3.org/2000/svg">
<path d="M16.5 0.5H1.5C1.30109 0.5 1.11032 0.579018 0.96967 0.71967C0.829018 0.860322 0.75 1.05109 0.75 1.25V7.25C0.75 7.44891 0.829018 7.63968 0.96967 7.78033C1.11032 7.92098 1.30109 8 1.5 8H3.75V14.75C3.75 14.9489 3.82902 15.1397 3.96967 15.2803C4.11032 15.421 4.30109 15.5 4.5 15.5H13.5C13.6989 15.5 13.8897 15.421 14.0303 15.2803C14.171 15.1397 14.25 14.9489 14.25 14.75V8H16.5C16.6989 8 16.8897 7.92098 17.0303 7.78033C17.171 7.63968 17.25 7.44891 17.25 7.25V1.25C17.25 1.05109 17.171 0.860322 17.0303 0.71967C16.8897 0.579018 16.6989 0.5 16.5 0.5ZM5.25 14V12.5C5.64782 12.5 6.02936 12.658 6.31066 12.9393C6.59196 13.2206 6.75 13.6022 6.75 14H5.25ZM12.75 14H11.25C11.25 13.6022 11.408 13.2206 11.6893 12.9393C11.9706 12.658 12.3522 12.5 12.75 12.5V14ZM12.75 11C11.9544 11 11.1913 11.3161 10.6287 11.8787C10.0661 12.4413 9.75 13.2044 9.75 14H8.25C8.25 13.2044 7.93393 12.4413 7.37132 11.8787C6.80871 11.3161 6.04565 11 5.25 11V5H12.75V11ZM15.75 6.5H14.25V4.25C14.25 4.05109 14.171 3.86032 14.0303 3.71967C13.8897 3.57902 13.6989 3.5 13.5 3.5H4.5C4.30109 3.5 4.11032 3.57902 3.96967 3.71967C3.82902 3.86032 3.75 4.05109 3.75 4.25V6.5H2.25V2H15.75V6.5ZM9 10.25C9.44501 10.25 9.88002 10.118 10.25 9.87081C10.62 9.62357 10.9084 9.27217 11.0787 8.86104C11.249 8.4499 11.2936 7.9975 11.2068 7.56105C11.12 7.12459 10.9057 6.72368 10.591 6.40901C10.2763 6.09434 9.87541 5.88005 9.43895 5.79323C9.0025 5.70642 8.5501 5.75097 8.13896 5.92127C7.72783 6.09157 7.37643 6.37996 7.12919 6.74997C6.88196 7.11998 6.75 7.55499 6.75 8C6.75 8.59674 6.98705 9.16903 7.40901 9.59099C7.83097 10.0129 8.40326 10.25 9 10.25ZM9 7.25C9.14834 7.25 9.29334 7.29399 9.41668 7.3764C9.54002 7.45881 9.63614 7.57594 9.69291 7.71299C9.74968 7.85003 9.76453 8.00083 9.73559 8.14632C9.70665 8.2918 9.63522 8.42544 9.53033 8.53033C9.42544 8.63522 9.2918 8.70665 9.14632 8.73559C9.00083 8.76453 8.85003 8.74968 8.71299 8.69291C8.57594 8.63614 8.45881 8.54002 8.3764 8.41668C8.29399 8.29334 8.25 8.14834 8.25 8C8.25 7.80109 8.32902 7.61032 8.46967 7.46967C8.61032 7.32902 8.80109 7.25 9 7.25Z" fill="#54616C"/>
</svg>
