<svg width="278" height="195" viewBox="0 0 278 195" fill="none" xmlns="http://www.w3.org/2000/svg">
<rect x="0.5" y="0.5" width="277" height="194" rx="7.5" fill="#002E5A"/>
<path d="M154.668 83.6389C154.668 83.6389 151.919 92.7101 138.174 92.9851C124.429 93.2601 121.13 83.3639 121.13 83.3639C121.13 83.3639 123.054 75.1164 138.449 75.3914C153.844 75.6664 154.668 83.6389 154.668 83.6389ZM146.695 61.5089C146.695 66.1401 142.941 69.8939 138.311 69.8939C133.68 69.8939 129.926 66.1401 129.926 61.5089C129.926 56.8776 133.68 53.1251 138.311 53.1251C142.941 53.1251 146.695 56.8789 146.695 61.5089ZM166.763 72.6426C166.763 57.0051 154.085 44.3276 138.448 44.3276C122.81 44.3276 110.134 57.0051 110.134 72.6426C110.134 88.2801 122.811 100.958 138.449 100.958C154.086 100.958 166.763 88.2801 166.763 72.6426Z" fill="#D2D7DB"/>
<path d="M63.0341 140.364H61.2784V152H63.0341V140.364ZM71.3878 146.818C71.3878 145.426 72.2685 144.631 73.4787 144.631C74.6491 144.631 75.348 145.375 75.348 146.653V152H77.0469V146.449C77.0469 144.273 75.8537 143.159 74.0582 143.159C72.7003 143.159 71.8821 143.75 71.473 144.693H71.3651V140.364H69.6889V152H71.3878V146.818ZM81.8537 152.193C83.2969 152.193 84.1094 151.46 84.4332 150.807H84.5014V152H86.1605V146.205C86.1605 143.665 84.1605 143.159 82.7741 143.159C81.1946 143.159 79.7401 143.795 79.1719 145.386L80.7685 145.75C81.0185 145.131 81.6548 144.534 82.7969 144.534C83.8935 144.534 84.456 145.108 84.456 146.097V146.136C84.456 146.756 83.8196 146.744 82.2514 146.926C80.598 147.119 78.9048 147.551 78.9048 149.534C78.9048 151.25 80.1946 152.193 81.8537 152.193ZM82.223 150.83C81.2628 150.83 80.5696 150.398 80.5696 149.557C80.5696 148.648 81.3764 148.324 82.3594 148.193C82.9105 148.119 84.2173 147.972 84.4616 147.727V148.852C84.4616 149.886 83.6378 150.83 82.223 150.83ZM95.5767 143.273H93.7528L91.5483 149.989H91.4574L89.2472 143.273H87.4233L90.5938 152H92.4119L95.5767 143.273ZM100.622 152.176C102.526 152.176 103.872 151.239 104.259 149.818L102.651 149.528C102.344 150.352 101.605 150.773 100.639 150.773C99.1847 150.773 98.2074 149.83 98.1619 148.148H104.366V147.545C104.366 144.392 102.48 143.159 100.503 143.159C98.071 143.159 96.4688 145.011 96.4688 147.693C96.4688 150.403 98.0483 152.176 100.622 152.176ZM98.1676 146.875C98.2358 145.636 99.1335 144.562 100.514 144.562C101.832 144.562 102.696 145.54 102.702 146.875H98.1676ZM113.026 152.193C114.469 152.193 115.281 151.46 115.605 150.807H115.673V152H117.332V146.205C117.332 143.665 115.332 143.159 113.946 143.159C112.366 143.159 110.912 143.795 110.344 145.386L111.94 145.75C112.19 145.131 112.827 144.534 113.969 144.534C115.065 144.534 115.628 145.108 115.628 146.097V146.136C115.628 146.756 114.991 146.744 113.423 146.926C111.77 147.119 110.077 147.551 110.077 149.534C110.077 151.25 111.366 152.193 113.026 152.193ZM113.395 150.83C112.435 150.83 111.741 150.398 111.741 149.557C111.741 148.648 112.548 148.324 113.531 148.193C114.082 148.119 115.389 147.972 115.634 147.727V148.852C115.634 149.886 114.81 150.83 113.395 150.83ZM133.631 144.148C133.233 141.659 131.284 140.205 128.824 140.205C125.812 140.205 123.591 142.46 123.591 146.182C123.591 149.903 125.801 152.159 128.824 152.159C131.381 152.159 133.25 150.557 133.631 148.256L131.858 148.25C131.557 149.739 130.307 150.557 128.835 150.557C126.841 150.557 125.335 149.028 125.335 146.182C125.335 143.358 126.835 141.807 128.841 141.807C130.324 141.807 131.568 142.642 131.858 144.148H133.631ZM141.124 148.381C141.129 149.864 140.027 150.568 139.072 150.568C138.021 150.568 137.294 149.807 137.294 148.619V143.273H135.595V148.824C135.595 150.989 136.783 152.114 138.459 152.114C139.771 152.114 140.663 151.42 141.067 150.489H141.158V152H142.828V143.273H141.124V148.381ZM151.651 145.403C151.298 144.045 150.236 143.159 148.349 143.159C146.378 143.159 144.98 144.199 144.98 145.744C144.98 146.983 145.73 147.807 147.366 148.17L148.844 148.494C149.685 148.682 150.077 149.057 150.077 149.602C150.077 150.278 149.355 150.807 148.241 150.807C147.224 150.807 146.571 150.369 146.366 149.511L144.724 149.761C145.009 151.307 146.293 152.176 148.253 152.176C150.361 152.176 151.821 151.057 151.821 149.477C151.821 148.244 151.037 147.483 149.435 147.114L148.048 146.795C147.088 146.568 146.673 146.244 146.679 145.653C146.673 144.983 147.401 144.506 148.366 144.506C149.423 144.506 149.912 145.091 150.111 145.676L151.651 145.403ZM157.763 143.273H155.973V141.182H154.274V143.273H152.996V144.636H154.274V149.79C154.268 151.375 155.479 152.142 156.82 152.114C157.359 152.108 157.723 152.006 157.922 151.932L157.615 150.528C157.501 150.551 157.291 150.602 157.018 150.602C156.467 150.602 155.973 150.42 155.973 149.438V144.636H157.763V143.273ZM163.224 152.176C165.685 152.176 167.293 150.375 167.293 147.676C167.293 144.96 165.685 143.159 163.224 143.159C160.764 143.159 159.156 144.96 159.156 147.676C159.156 150.375 160.764 152.176 163.224 152.176ZM163.23 150.75C161.622 150.75 160.872 149.347 160.872 147.67C160.872 146 161.622 144.58 163.23 144.58C164.827 144.58 165.577 146 165.577 147.67C165.577 149.347 164.827 150.75 163.23 150.75ZM169.189 152H170.888V146.619C170.888 145.443 171.712 144.625 172.678 144.625C173.621 144.625 174.274 145.25 174.274 146.199V152H175.967V146.438C175.967 145.386 176.609 144.625 177.717 144.625C178.615 144.625 179.354 145.125 179.354 146.307V152H181.053V146.148C181.053 144.153 179.939 143.159 178.359 143.159C177.104 143.159 176.161 143.761 175.74 144.693H175.649C175.268 143.739 174.467 143.159 173.303 143.159C172.149 143.159 171.291 143.733 170.928 144.693H170.82V143.273H169.189V152ZM187.091 152.176C188.994 152.176 190.341 151.239 190.727 149.818L189.119 149.528C188.812 150.352 188.074 150.773 187.108 150.773C185.653 150.773 184.676 149.83 184.631 148.148H190.835V147.545C190.835 144.392 188.949 143.159 186.972 143.159C184.54 143.159 182.938 145.011 182.938 147.693C182.938 150.403 184.517 152.176 187.091 152.176ZM184.636 146.875C184.705 145.636 185.602 144.562 186.983 144.562C188.301 144.562 189.165 145.54 189.17 146.875H184.636ZM192.72 152H194.419V146.67C194.419 145.528 195.3 144.705 196.504 144.705C196.857 144.705 197.254 144.767 197.391 144.807V143.182C197.22 143.159 196.885 143.142 196.669 143.142C195.646 143.142 194.771 143.722 194.453 144.659H194.362V143.273H192.72V152ZM204.987 140.364H203.232V152H204.987V140.364ZM211.311 152C214.857 152 216.908 149.801 216.908 146.165C216.908 142.545 214.857 140.364 211.43 140.364H207.544V152H211.311ZM209.3 150.466V141.898H211.322C213.868 141.898 215.18 143.42 215.18 146.165C215.18 148.92 213.868 150.466 211.214 150.466H209.3Z" fill="white"/>
<path d="M251.5 19C251.5 14.8579 254.858 11.5 259 11.5C263.142 11.5 266.5 14.8579 266.5 19C266.5 23.1421 263.142 26.5 259 26.5C254.858 26.5 251.5 23.1421 251.5 19Z" fill="#F7F7F7" stroke="#002E5A"/>
<rect x="255" y="15" width="8" height="8" rx="4" fill="#002E5A"/>
<rect x="0.5" y="0.5" width="277" height="194" rx="7.5" stroke="#D2D7DB"/>
</svg>
