<svg width="278" height="195" viewBox="0 0 278 195" fill="none" xmlns="http://www.w3.org/2000/svg">
<rect x="0.5" y="0.5" width="277" height="194" rx="7.5" fill="#002E5A"/>
<path d="M81.8388 139.364H80.0831V151H81.8388V139.364ZM91.7607 151.17C93.3516 151.17 93.9766 150.199 94.2834 149.642H94.4254V151H96.0845V139.364H94.3857V143.688H94.2834C93.9766 143.148 93.397 142.159 91.772 142.159C89.6641 142.159 88.1129 143.824 88.1129 146.653C88.1129 149.477 89.6413 151.17 91.7607 151.17ZM92.1357 149.722C90.6186 149.722 89.8288 148.386 89.8288 146.636C89.8288 144.903 90.6016 143.602 92.1357 143.602C93.6186 143.602 94.4141 144.812 94.4141 146.636C94.4141 148.472 93.6016 149.722 92.1357 149.722ZM102.185 151.176C104.646 151.176 106.254 149.375 106.254 146.676C106.254 143.96 104.646 142.159 102.185 142.159C99.7251 142.159 98.1172 143.96 98.1172 146.676C98.1172 149.375 99.7251 151.176 102.185 151.176ZM102.191 149.75C100.583 149.75 99.8331 148.347 99.8331 146.67C99.8331 145 100.583 143.58 102.191 143.58C103.788 143.58 104.538 145 104.538 146.67C104.538 148.347 103.788 149.75 102.191 149.75ZM109.849 145.818C109.849 144.426 110.701 143.631 111.883 143.631C113.036 143.631 113.735 144.386 113.735 145.653V151H115.434V145.449C115.434 143.29 114.246 142.159 112.462 142.159C111.15 142.159 110.292 142.767 109.888 143.693H109.781V142.273H108.15V151H109.849V145.818ZM119.173 139.364H117.718V140.472C117.718 141.352 117.332 142.074 116.888 142.727L117.729 143.33C118.604 142.625 119.173 141.42 119.173 140.455V139.364ZM125.224 142.273H123.434V140.182H121.735V142.273H120.457V143.636H121.735V148.79C121.729 150.375 122.94 151.142 124.281 151.114C124.82 151.108 125.184 151.006 125.383 150.932L125.076 149.528C124.962 149.551 124.752 149.602 124.479 149.602C123.928 149.602 123.434 149.42 123.434 148.438V143.636H125.224V142.273ZM133.036 145.818C133.036 144.426 133.917 143.631 135.127 143.631C136.298 143.631 136.996 144.375 136.996 145.653V151H138.695V145.449C138.695 143.273 137.502 142.159 135.707 142.159C134.349 142.159 133.531 142.75 133.121 143.693H133.013V139.364H131.337V151H133.036V145.818ZM143.502 151.193C144.945 151.193 145.758 150.46 146.082 149.807H146.15V151H147.809V145.205C147.809 142.665 145.809 142.159 144.423 142.159C142.843 142.159 141.388 142.795 140.82 144.386L142.417 144.75C142.667 144.131 143.303 143.534 144.445 143.534C145.542 143.534 146.104 144.108 146.104 145.097V145.136C146.104 145.756 145.468 145.744 143.9 145.926C142.246 146.119 140.553 146.551 140.553 148.534C140.553 150.25 141.843 151.193 143.502 151.193ZM143.871 149.83C142.911 149.83 142.218 149.398 142.218 148.557C142.218 147.648 143.025 147.324 144.008 147.193C144.559 147.119 145.866 146.972 146.11 146.727V147.852C146.11 148.886 145.286 149.83 143.871 149.83ZM157.225 142.273H155.401L153.197 148.989H153.106L150.896 142.273H149.072L152.242 151H154.06L157.225 142.273ZM162.271 151.176C164.174 151.176 165.521 150.239 165.907 148.818L164.299 148.528C163.992 149.352 163.254 149.773 162.288 149.773C160.833 149.773 159.856 148.83 159.81 147.148H166.015V146.545C166.015 143.392 164.129 142.159 162.151 142.159C159.719 142.159 158.117 144.011 158.117 146.693C158.117 149.403 159.697 151.176 162.271 151.176ZM159.816 145.875C159.884 144.636 160.782 143.562 162.163 143.562C163.481 143.562 164.344 144.54 164.35 145.875H159.816ZM174.674 151.193C176.117 151.193 176.93 150.46 177.254 149.807H177.322V151H178.981V145.205C178.981 142.665 176.981 142.159 175.594 142.159C174.015 142.159 172.56 142.795 171.992 144.386L173.589 144.75C173.839 144.131 174.475 143.534 175.617 143.534C176.714 143.534 177.276 144.108 177.276 145.097V145.136C177.276 145.756 176.64 145.744 175.072 145.926C173.418 146.119 171.725 146.551 171.725 148.534C171.725 150.25 173.015 151.193 174.674 151.193ZM175.043 149.83C174.083 149.83 173.39 149.398 173.39 148.557C173.39 147.648 174.197 147.324 175.18 147.193C175.731 147.119 177.038 146.972 177.282 146.727V147.852C177.282 148.886 176.458 149.83 175.043 149.83ZM187.37 139.364H185.614V151H187.37V139.364ZM193.694 151C197.239 151 199.29 148.801 199.29 145.165C199.29 141.545 197.239 139.364 193.813 139.364H189.927V151H193.694ZM191.683 149.466V140.898H193.705C196.251 140.898 197.563 142.42 197.563 145.165C197.563 147.92 196.251 149.466 193.597 149.466H191.683Z" fill="white"/>
<path d="M132.952 97.4999C147.232 97.4999 161.27 85.9237 164.306 71.6424C167.341 57.3624 158.225 45.7849 143.945 45.7849C129.665 45.7849 115.626 57.3624 112.591 71.6424C109.556 85.9224 118.671 97.4999 132.952 97.4999Z" fill="#D2D7DB"/>
<path d="M137.089 82.3975C137.081 81.925 136.972 81.5437 136.76 81.2537C136.547 80.9637 136.227 80.7562 135.799 80.6325C135.369 80.5087 134.822 80.4462 134.16 80.4462C133.464 80.4462 132.879 80.5087 132.405 80.6325C131.931 80.7562 131.526 80.9637 131.191 81.2537C130.856 81.5437 130.585 81.925 130.376 82.3975C130.167 82.87 129.99 83.4537 129.842 84.15C129.697 84.83 129.63 85.4012 129.64 85.865C129.649 86.3287 129.76 86.7025 129.974 86.9837C130.187 87.2662 130.505 87.4687 130.926 87.5925C131.347 87.7162 131.906 87.7787 132.602 87.7787C133.265 87.7787 133.837 87.7162 134.32 87.5925C134.802 87.4687 135.21 87.265 135.544 86.9837C135.877 86.7025 136.146 86.3287 136.354 85.865C136.56 85.4012 136.735 84.8287 136.88 84.15C137.026 83.455 137.096 82.87 137.089 82.3975ZM148.936 59.1162C148.771 57.94 148.344 56.8962 147.65 55.9837C146.957 55.0725 145.971 54.3475 144.694 53.8087C143.416 53.27 141.799 53.0012 139.844 53.0012C138.981 53.0012 138.139 53.0675 137.315 53.2C136.491 53.3325 135.736 53.4937 135.049 53.685C134.361 53.8762 133.762 54.0825 133.251 54.3062C132.74 54.53 132.382 54.725 132.182 54.89C131.981 55.0562 131.827 55.2712 131.722 55.5362C131.616 55.8012 131.501 56.2237 131.379 56.8037C131.259 57.3675 131.181 57.8312 131.145 58.1962C131.109 58.5612 131.102 58.8425 131.127 59.0412C131.151 59.24 131.205 59.3762 131.289 59.4512C131.372 59.5262 131.472 59.5625 131.587 59.5625C131.752 59.5625 132.006 59.48 132.349 59.3137C132.69 59.1487 133.115 58.9662 133.621 58.7662C134.127 58.5675 134.721 58.385 135.404 58.2187C136.085 58.0537 136.849 57.97 137.694 57.97C138.621 57.97 139.402 58.0987 140.036 58.355C140.669 58.6125 141.162 58.9812 141.516 59.4612C141.87 59.9425 142.087 60.5137 142.171 61.1762C142.254 61.8387 142.211 62.5687 142.042 63.3637C141.891 64.0762 141.652 64.7475 141.329 65.3775C141.004 66.0075 140.585 66.555 140.072 67.0187C139.559 67.4825 138.954 67.8562 138.256 68.1375C137.559 68.42 136.77 68.56 135.891 68.56H135.544C135.179 68.56 134.856 68.5975 134.575 68.6725C134.294 68.7475 134.045 68.8837 133.829 69.0825C133.612 69.2812 133.435 69.5462 133.299 69.8775C133.162 70.2087 133.045 70.64 132.949 71.17L131.925 77.0375C131.902 77.22 131.929 77.3687 132.004 77.485C132.079 77.6012 132.216 77.6925 132.417 77.7587C132.619 77.825 132.904 77.8712 133.271 77.895C133.639 77.92 134.096 77.9325 134.642 77.9325C135.504 77.9325 136.179 77.8575 136.666 77.7087C137.154 77.56 137.437 77.3362 137.517 77.0375L138.746 72.19C139.967 72.0575 141.122 71.7512 142.211 71.27C143.299 70.79 144.28 70.1512 145.154 69.3562C146.027 68.5612 146.775 67.6162 147.397 66.5225C148.019 65.4287 148.475 64.2025 148.764 62.8437C149.044 61.5362 149.1 60.2937 148.936 59.1162Z" fill="#002E5A"/>
<path d="M251.5 19C251.5 14.8579 254.858 11.5 259 11.5C263.142 11.5 266.5 14.8579 266.5 19C266.5 23.1421 263.142 26.5 259 26.5C254.858 26.5 251.5 23.1421 251.5 19Z" fill="#F7F7F7" stroke="#002E5A"/>
<rect x="255" y="15" width="8" height="8" rx="4" fill="#002E5A"/>
<rect x="0.5" y="0.5" width="277" height="194" rx="7.5" stroke="#D2D7DB"/>
</svg>
