<svg width="14" height="14" viewBox="0 0 14 14" fill="none" xmlns="http://www.w3.org/2000/svg">
  <path d="M7.00001 13.6667C8.76812 13.6667 10.4638 12.9643 11.7141 11.7141C12.9643 10.4638 13.6667 8.76815 13.6667 7.00004C13.6667 5.23193 12.9643 3.53624 11.7141 2.286C10.4638 1.03575 8.76812 0.333374 7.00001 0.333374C5.2319 0.333374 3.53621 1.03575 2.28596 2.286C1.03572 3.53624 0.333344 5.23193 0.333344 7.00004C0.333344 8.76815 1.03572 10.4638 2.28596 11.7141C3.53621 12.9643 5.2319 13.6667 7.00001 13.6667ZM6.00001 10C6.00001 9.73482 6.10537 9.48047 6.2929 9.29293C6.48044 9.1054 6.73479 9.00004 7.00001 9.00004C7.26523 9.00004 7.51958 9.1054 7.70712 9.29293C7.89465 9.48047 8.00001 9.73482 8.00001 10C8.00001 10.2653 7.89465 10.5196 7.70712 10.7071C7.51958 10.8947 7.26523 11 7.00001 11C6.73479 11 6.48044 10.8947 6.2929 10.7071C6.10537 10.5196 6.00001 10.2653 6.00001 10ZM6.34401 3.54671C6.37184 3.393 6.45277 3.25394 6.57266 3.15381C6.69255 3.05367 6.8438 2.99882 7.00001 2.99882C7.15622 2.99882 7.30747 3.05367 7.42736 3.15381C7.54726 3.25394 7.62818 3.393 7.65601 3.54671L7.66668 3.66671V7.00004L7.65601 7.12004C7.62818 7.27375 7.54726 7.41281 7.42736 7.51294C7.30747 7.61308 7.15622 7.66793 7.00001 7.66793C6.8438 7.66793 6.69255 7.61308 6.57266 7.51294C6.45277 7.41281 6.37184 7.27375 6.34401 7.12004L6.33334 7.00004V3.66671L6.34401 3.54671Z" fill="#D9534F" />
</svg>
