<svg width="14" height="14" viewBox="0 0 14 14" fill="none" xmlns="http://www.w3.org/2000/svg">
<path d="M4.38167 7.12899L1.80767 4.55499C0.794341 5.65965 0.410341 6.76632 0.403674 6.78899L0.333008 6.99965L0.403008 7.21032C0.417674 7.25499 1.94701 11.6663 7.03567 11.6663C7.65501 11.6663 8.21901 11.5983 8.73701 11.4843L6.90634 9.65365C6.2472 9.62134 5.62364 9.34498 5.157 8.87833C4.69035 8.41169 4.41399 7.78813 4.38167 7.12899ZM7.03567 2.33299C5.79901 2.33299 4.78567 2.60232 3.94101 2.99832L1.47101 0.52832L0.528341 1.47099L12.5283 13.471L13.471 12.5283L11.2723 10.3297C13.031 9.02765 13.6583 7.23832 13.6677 7.21032L13.7377 6.99965L13.6677 6.78899C13.653 6.74432 12.1243 2.33299 7.03567 2.33299ZM8.30634 7.36365C8.43101 6.91232 8.32501 6.40432 7.97834 6.05699C7.63167 5.70965 7.12301 5.60432 6.67167 5.72899L5.66634 4.72365C6.07832 4.47031 6.55204 4.33516 7.03567 4.33299C8.50634 4.33299 9.70234 5.52899 9.70234 6.99965C9.70037 7.4832 9.56495 7.95682 9.31101 8.36832L8.30634 7.36365Z" fill="#D2D7DB"/>
</svg>
