<svg width="16" height="16" viewBox="0 0 16 16" fill="none" xmlns="http://www.w3.org/2000/svg">
  <path d="M5.38204 8.12899L2.80804 5.55499C1.79471 6.65965 1.41071 7.76632 1.40404 7.78899L1.33337 7.99965L1.40337 8.21032C1.41804 8.25499 2.94737 12.6663 8.03604 12.6663C8.65537 12.6663 9.21937 12.5983 9.73737 12.4843L7.90671 10.6537C7.24756 10.6213 6.62401 10.345 6.15736 9.87833C5.69072 9.41169 5.41435 8.78813 5.38204 8.12899ZM8.03604 3.33299C6.79937 3.33299 5.78604 3.60232 4.94137 3.99832L2.47137 1.52832L1.52871 2.47099L13.5287 14.471L14.4714 13.5283L12.2727 11.3297C14.0314 10.0277 14.6587 8.23832 14.668 8.21032L14.738 7.99965L14.668 7.78899C14.6534 7.74432 13.1247 3.33299 8.03604 3.33299ZM9.30671 8.36365C9.43137 7.91232 9.32537 7.40432 8.97871 7.05699C8.63204 6.70965 8.12337 6.60432 7.67204 6.72899L6.66671 5.72365C7.07868 5.47031 7.55241 5.33516 8.03604 5.33299C9.50671 5.33299 10.7027 6.52899 10.7027 7.99965C10.7007 8.4832 10.5653 8.95682 10.3114 9.36832L9.30671 8.36365Z" fill="#54616C" />
</svg>
