<svg width="16" height="16" viewBox="0 0 16 16" fill="none" xmlns="http://www.w3.org/2000/svg">
  <path d="M8 3.33301C2.91133 3.33301 1.382 7.74434 1.368 7.78901L1.29733 7.99967L1.36733 8.21034C1.382 8.25501 2.91133 12.6663 8 12.6663C13.0887 12.6663 14.618 8.25501 14.632 8.21034L14.7027 7.99967L14.6327 7.78901C14.618 7.74434 13.0887 3.33301 8 3.33301ZM8 10.6663C6.52933 10.6663 5.33333 9.47034 5.33333 7.99967C5.33333 6.52901 6.52933 5.33301 8 5.33301C9.47067 5.33301 10.6667 6.52901 10.6667 7.99967C10.6667 9.47034 9.47067 10.6663 8 10.6663Z" fill="#54616C" />
  <path d="M7.99999 6.66699C7.27732 6.66699 6.66666 7.27766 6.66666 8.00033C6.66666 8.72299 7.27732 9.33366 7.99999 9.33366C8.72266 9.33366 9.33332 8.72299 9.33332 8.00033C9.33332 7.27766 8.72266 6.66699 7.99999 6.66699Z" fill="#54616C" />
</svg>
