<svg width="16" height="16" viewBox="0 0 16 16" fill="none" xmlns="http://www.w3.org/2000/svg">
  <path fill-rule="evenodd" clip-rule="evenodd" d="M8 0.666626C3.95 0.666626 0.666666 3.94996 0.666666 7.99996C0.666666 12.05 3.95 15.3333 8 15.3333C12.05 15.3333 15.3333 12.05 15.3333 7.99996C15.3333 3.94996 12.05 0.666626 8 0.666626ZM7.66667 3.99996C7.48985 3.99996 7.32029 4.0702 7.19526 4.19522C7.07024 4.32025 7 4.48981 7 4.66663C7 4.84344 7.07024 5.01301 7.19526 5.13803C7.32029 5.26305 7.48985 5.33329 7.66667 5.33329H8C8.17681 5.33329 8.34638 5.26305 8.4714 5.13803C8.59643 5.01301 8.66667 4.84344 8.66667 4.66663C8.66667 4.48981 8.59643 4.32025 8.4714 4.19522C8.34638 4.0702 8.17681 3.99996 8 3.99996H7.66667ZM6.66667 6.66663C6.48985 6.66663 6.32029 6.73686 6.19526 6.86189C6.07024 6.98691 6 7.15648 6 7.33329C6 7.5101 6.07024 7.67967 6.19526 7.8047C6.32029 7.92972 6.48985 7.99996 6.66667 7.99996H7.33333V9.99996H6.66667C6.48985 9.99996 6.32029 10.0702 6.19526 10.1952C6.07024 10.3202 6 10.4898 6 10.6666C6 10.8434 6.07024 11.013 6.19526 11.138C6.32029 11.2631 6.48985 11.3333 6.66667 11.3333H9.33333C9.51014 11.3333 9.67971 11.2631 9.80474 11.138C9.92976 11.013 10 10.8434 10 10.6666C10 10.4898 9.92976 10.3202 9.80474 10.1952C9.67971 10.0702 9.51014 9.99996 9.33333 9.99996H8.66667V7.33329C8.66667 7.15648 8.59643 6.98691 8.4714 6.86189C8.34638 6.73686 8.17681 6.66663 8 6.66663H6.66667Z" fill="#3C557E" />
</svg>
