<svg width="64" height="64" viewBox="0 0 64 64" fill="none" xmlns="http://www.w3.org/2000/svg">
<path d="M32 64C40.4869 64 48.6263 60.6286 54.6274 54.6274C60.6286 48.6263 64 40.4869 64 32C64 23.5131 60.6286 15.3737 54.6274 9.37258C48.6263 3.37142 40.4869 0 32 0C23.5131 0 15.3737 3.37142 9.37258 9.37258C3.37142 15.3737 0 23.5131 0 32C0 40.4869 3.37142 48.6263 9.37258 54.6274C15.3737 60.6286 23.5131 64 32 64ZM27.2 46.4C27.2 45.127 27.7057 43.9061 28.6059 43.0059C29.5061 42.1057 30.727 41.6 32 41.6C33.273 41.6 34.4939 42.1057 35.3941 43.0059C36.2943 43.9061 36.8 45.127 36.8 46.4C36.8 47.673 36.2943 48.8939 35.3941 49.7941C34.4939 50.6943 33.273 51.2 32 51.2C30.727 51.2 29.5061 50.6943 28.6059 49.7941C27.7057 48.8939 27.2 47.673 27.2 46.4ZM28.8512 15.424C28.9848 14.6862 29.3732 14.0187 29.9487 13.5381C30.5242 13.0574 31.2502 12.7941 32 12.7941C32.7498 12.7941 33.4758 13.0574 34.0513 13.5381C34.6268 14.0187 35.0152 14.6862 35.1488 15.424L35.2 16V32L35.1488 32.576C35.0152 33.3138 34.6268 33.9813 34.0513 34.4619C33.4758 34.9426 32.7498 35.2059 32 35.2059C31.2502 35.2059 30.5242 34.9426 29.9487 34.4619C29.3732 33.9813 28.9848 33.3138 28.8512 32.576L28.8 32V16L28.8512 15.424Z" fill="#F0AD4E"/>
</svg>
