<svg width="279" height="195" viewBox="0 0 279 195" fill="none" xmlns="http://www.w3.org/2000/svg">
<rect x="0.5" y="0.5" width="278" height="194" rx="7.5" fill="white"/>
<path d="M82.8388 139.364H81.0831V151H82.8388V139.364ZM92.7607 151.17C94.3516 151.17 94.9766 150.199 95.2834 149.642H95.4254V151H97.0845V139.364H95.3857V143.688H95.2834C94.9766 143.148 94.397 142.159 92.772 142.159C90.6641 142.159 89.1129 143.824 89.1129 146.653C89.1129 149.477 90.6413 151.17 92.7607 151.17ZM93.1357 149.722C91.6186 149.722 90.8288 148.386 90.8288 146.636C90.8288 144.903 91.6016 143.602 93.1357 143.602C94.6186 143.602 95.4141 144.812 95.4141 146.636C95.4141 148.472 94.6016 149.722 93.1357 149.722ZM103.185 151.176C105.646 151.176 107.254 149.375 107.254 146.676C107.254 143.96 105.646 142.159 103.185 142.159C100.725 142.159 99.1172 143.96 99.1172 146.676C99.1172 149.375 100.725 151.176 103.185 151.176ZM103.191 149.75C101.583 149.75 100.833 148.347 100.833 146.67C100.833 145 101.583 143.58 103.191 143.58C104.788 143.58 105.538 145 105.538 146.67C105.538 148.347 104.788 149.75 103.191 149.75ZM110.849 145.818C110.849 144.426 111.701 143.631 112.883 143.631C114.036 143.631 114.735 144.386 114.735 145.653V151H116.434V145.449C116.434 143.29 115.246 142.159 113.462 142.159C112.15 142.159 111.292 142.767 110.888 143.693H110.781V142.273H109.15V151H110.849V145.818ZM120.173 139.364H118.718V140.472C118.718 141.352 118.332 142.074 117.888 142.727L118.729 143.33C119.604 142.625 120.173 141.42 120.173 140.455V139.364ZM126.224 142.273H124.434V140.182H122.735V142.273H121.457V143.636H122.735V148.79C122.729 150.375 123.94 151.142 125.281 151.114C125.82 151.108 126.184 151.006 126.383 150.932L126.076 149.528C125.962 149.551 125.752 149.602 125.479 149.602C124.928 149.602 124.434 149.42 124.434 148.438V143.636H126.224V142.273ZM134.036 145.818C134.036 144.426 134.917 143.631 136.127 143.631C137.298 143.631 137.996 144.375 137.996 145.653V151H139.695V145.449C139.695 143.273 138.502 142.159 136.707 142.159C135.349 142.159 134.531 142.75 134.121 143.693H134.013V139.364H132.337V151H134.036V145.818ZM144.502 151.193C145.945 151.193 146.758 150.46 147.082 149.807H147.15V151H148.809V145.205C148.809 142.665 146.809 142.159 145.423 142.159C143.843 142.159 142.388 142.795 141.82 144.386L143.417 144.75C143.667 144.131 144.303 143.534 145.445 143.534C146.542 143.534 147.104 144.108 147.104 145.097V145.136C147.104 145.756 146.468 145.744 144.9 145.926C143.246 146.119 141.553 146.551 141.553 148.534C141.553 150.25 142.843 151.193 144.502 151.193ZM144.871 149.83C143.911 149.83 143.218 149.398 143.218 148.557C143.218 147.648 144.025 147.324 145.008 147.193C145.559 147.119 146.866 146.972 147.11 146.727V147.852C147.11 148.886 146.286 149.83 144.871 149.83ZM158.225 142.273H156.401L154.197 148.989H154.106L151.896 142.273H150.072L153.242 151H155.06L158.225 142.273ZM163.271 151.176C165.174 151.176 166.521 150.239 166.907 148.818L165.299 148.528C164.992 149.352 164.254 149.773 163.288 149.773C161.833 149.773 160.856 148.83 160.81 147.148H167.015V146.545C167.015 143.392 165.129 142.159 163.151 142.159C160.719 142.159 159.117 144.011 159.117 146.693C159.117 149.403 160.697 151.176 163.271 151.176ZM160.816 145.875C160.884 144.636 161.782 143.562 163.163 143.562C164.481 143.562 165.344 144.54 165.35 145.875H160.816ZM175.674 151.193C177.117 151.193 177.93 150.46 178.254 149.807H178.322V151H179.981V145.205C179.981 142.665 177.981 142.159 176.594 142.159C175.015 142.159 173.56 142.795 172.992 144.386L174.589 144.75C174.839 144.131 175.475 143.534 176.617 143.534C177.714 143.534 178.276 144.108 178.276 145.097V145.136C178.276 145.756 177.64 145.744 176.072 145.926C174.418 146.119 172.725 146.551 172.725 148.534C172.725 150.25 174.015 151.193 175.674 151.193ZM176.043 149.83C175.083 149.83 174.39 149.398 174.39 148.557C174.39 147.648 175.197 147.324 176.18 147.193C176.731 147.119 178.038 146.972 178.282 146.727V147.852C178.282 148.886 177.458 149.83 176.043 149.83ZM188.37 139.364H186.614V151H188.37V139.364ZM194.694 151C198.239 151 200.29 148.801 200.29 145.165C200.29 141.545 198.239 139.364 194.813 139.364H190.927V151H194.694ZM192.683 149.466V140.898H194.705C197.251 140.898 198.563 142.42 198.563 145.165C198.563 147.92 197.251 149.466 194.597 149.466H192.683Z" fill="#002E5A"/>
<path d="M133.952 97.5002C148.232 97.5002 162.27 85.9239 165.306 71.6427C168.341 57.3627 159.225 45.7852 144.945 45.7852C130.665 45.7852 116.626 57.3627 113.591 71.6427C110.556 85.9227 119.671 97.5002 133.952 97.5002Z" fill="#C6CCD0"/>
<path d="M138.089 82.3972C138.081 81.9247 137.972 81.5435 137.76 81.2535C137.547 80.9635 137.227 80.756 136.799 80.6322C136.369 80.5085 135.822 80.446 135.16 80.446C134.464 80.446 133.879 80.5085 133.405 80.6322C132.931 80.756 132.526 80.9635 132.191 81.2535C131.856 81.5435 131.585 81.9247 131.376 82.3972C131.167 82.8697 130.99 83.4535 130.842 84.1497C130.697 84.8297 130.63 85.401 130.64 85.8647C130.649 86.3285 130.76 86.7022 130.974 86.9835C131.187 87.266 131.505 87.4685 131.926 87.5922C132.347 87.716 132.906 87.7785 133.602 87.7785C134.265 87.7785 134.837 87.716 135.32 87.5922C135.802 87.4685 136.21 87.2647 136.544 86.9835C136.877 86.7022 137.146 86.3285 137.354 85.8647C137.56 85.401 137.735 84.8285 137.88 84.1497C138.026 83.4547 138.096 82.8697 138.089 82.3972ZM149.936 59.116C149.771 57.9397 149.344 56.896 148.65 55.9835C147.957 55.0722 146.971 54.3472 145.694 53.8085C144.416 53.2697 142.799 53.001 140.844 53.001C139.981 53.001 139.139 53.0672 138.315 53.1997C137.491 53.3322 136.736 53.4935 136.049 53.6847C135.361 53.876 134.762 54.0822 134.251 54.306C133.74 54.5297 133.382 54.7247 133.182 54.8897C132.981 55.056 132.827 55.271 132.722 55.536C132.616 55.801 132.501 56.2235 132.379 56.8035C132.259 57.3672 132.181 57.831 132.145 58.196C132.109 58.561 132.102 58.8422 132.127 59.041C132.151 59.2397 132.205 59.376 132.289 59.451C132.372 59.526 132.472 59.5622 132.587 59.5622C132.752 59.5622 133.006 59.4797 133.349 59.3135C133.69 59.1485 134.115 58.966 134.621 58.766C135.127 58.5672 135.721 58.3847 136.404 58.2185C137.085 58.0535 137.849 57.9697 138.694 57.9697C139.621 57.9697 140.402 58.0985 141.036 58.3547C141.669 58.6122 142.162 58.981 142.516 59.461C142.87 59.9422 143.087 60.5135 143.171 61.176C143.254 61.8385 143.211 62.5685 143.042 63.3635C142.891 64.076 142.652 64.7472 142.329 65.3772C142.004 66.0072 141.585 66.5547 141.072 67.0185C140.559 67.4822 139.954 67.856 139.256 68.1372C138.559 68.4197 137.77 68.5597 136.891 68.5597H136.544C136.179 68.5597 135.856 68.5972 135.575 68.6722C135.294 68.7472 135.045 68.8835 134.829 69.0822C134.612 69.281 134.435 69.546 134.299 69.8772C134.162 70.2085 134.045 70.6397 133.949 71.1697L132.925 77.0372C132.902 77.2197 132.929 77.3685 133.004 77.4847C133.079 77.601 133.216 77.6922 133.417 77.7585C133.619 77.8247 133.904 77.871 134.271 77.8947C134.639 77.9197 135.096 77.9322 135.642 77.9322C136.504 77.9322 137.179 77.8572 137.666 77.7085C138.154 77.5597 138.437 77.336 138.517 77.0372L139.746 72.1897C140.967 72.0572 142.122 71.751 143.211 71.2697C144.299 70.7897 145.28 70.151 146.154 69.356C147.027 68.561 147.775 67.616 148.397 66.5222C149.019 65.4285 149.475 64.2022 149.764 62.8435C150.044 61.536 150.1 60.2935 149.936 59.116Z" fill="white"/>
<path d="M252.5 19C252.5 14.8579 255.858 11.5 260 11.5C264.142 11.5 267.5 14.8579 267.5 19C267.5 23.1421 264.142 26.5 260 26.5C255.858 26.5 252.5 23.1421 252.5 19Z" fill="white" stroke="#D2D7DB"/>
<rect x="0.5" y="0.5" width="278" height="194" rx="7.5" stroke="#D2D7DB"/>
</svg>
