<svg width="279" height="195" viewBox="0 0 279 195" fill="none" xmlns="http://www.w3.org/2000/svg">
<rect x="0.5" y="0.5" width="278" height="194" rx="7.5" fill="white"/>
<path d="M155.668 83.6384C155.668 83.6384 152.919 92.7096 139.174 92.9846C125.429 93.2597 122.13 83.3634 122.13 83.3634C122.13 83.3634 124.054 75.1159 139.449 75.3909C154.844 75.6659 155.668 83.6384 155.668 83.6384ZM147.695 61.5084C147.695 66.1397 143.941 69.8934 139.311 69.8934C134.68 69.8934 130.926 66.1397 130.926 61.5084C130.926 56.8771 134.68 53.1246 139.311 53.1246C143.941 53.1246 147.695 56.8784 147.695 61.5084ZM167.763 72.6421C167.763 57.0046 155.085 44.3271 139.448 44.3271C123.81 44.3271 111.134 57.0046 111.134 72.6421C111.134 88.2796 123.811 100.957 139.449 100.957C155.086 100.957 167.763 88.2796 167.763 72.6421Z" fill="#D2D7DB"/>
<path d="M64.0341 140.364H62.2784V152H64.0341V140.364ZM72.3878 146.818C72.3878 145.426 73.2685 144.631 74.4787 144.631C75.6491 144.631 76.348 145.375 76.348 146.653V152H78.0469V146.449C78.0469 144.273 76.8537 143.159 75.0582 143.159C73.7003 143.159 72.8821 143.75 72.473 144.693H72.3651V140.364H70.6889V152H72.3878V146.818ZM82.8537 152.193C84.2969 152.193 85.1094 151.46 85.4332 150.807H85.5014V152H87.1605V146.205C87.1605 143.665 85.1605 143.159 83.7741 143.159C82.1946 143.159 80.7401 143.795 80.1719 145.386L81.7685 145.75C82.0185 145.131 82.6548 144.534 83.7969 144.534C84.8935 144.534 85.456 145.108 85.456 146.097V146.136C85.456 146.756 84.8196 146.744 83.2514 146.926C81.598 147.119 79.9048 147.551 79.9048 149.534C79.9048 151.25 81.1946 152.193 82.8537 152.193ZM83.223 150.83C82.2628 150.83 81.5696 150.398 81.5696 149.557C81.5696 148.648 82.3764 148.324 83.3594 148.193C83.9105 148.119 85.2173 147.972 85.4616 147.727V148.852C85.4616 149.886 84.6378 150.83 83.223 150.83ZM96.5767 143.273H94.7528L92.5483 149.989H92.4574L90.2472 143.273H88.4233L91.5938 152H93.4119L96.5767 143.273ZM101.622 152.176C103.526 152.176 104.872 151.239 105.259 149.818L103.651 149.528C103.344 150.352 102.605 150.773 101.639 150.773C100.185 150.773 99.2074 149.83 99.1619 148.148H105.366V147.545C105.366 144.392 103.48 143.159 101.503 143.159C99.071 143.159 97.4688 145.011 97.4688 147.693C97.4688 150.403 99.0483 152.176 101.622 152.176ZM99.1676 146.875C99.2358 145.636 100.134 144.562 101.514 144.562C102.832 144.562 103.696 145.54 103.702 146.875H99.1676ZM114.026 152.193C115.469 152.193 116.281 151.46 116.605 150.807H116.673V152H118.332V146.205C118.332 143.665 116.332 143.159 114.946 143.159C113.366 143.159 111.912 143.795 111.344 145.386L112.94 145.75C113.19 145.131 113.827 144.534 114.969 144.534C116.065 144.534 116.628 145.108 116.628 146.097V146.136C116.628 146.756 115.991 146.744 114.423 146.926C112.77 147.119 111.077 147.551 111.077 149.534C111.077 151.25 112.366 152.193 114.026 152.193ZM114.395 150.83C113.435 150.83 112.741 150.398 112.741 149.557C112.741 148.648 113.548 148.324 114.531 148.193C115.082 148.119 116.389 147.972 116.634 147.727V148.852C116.634 149.886 115.81 150.83 114.395 150.83ZM134.631 144.148C134.233 141.659 132.284 140.205 129.824 140.205C126.812 140.205 124.591 142.46 124.591 146.182C124.591 149.903 126.801 152.159 129.824 152.159C132.381 152.159 134.25 150.557 134.631 148.256L132.858 148.25C132.557 149.739 131.307 150.557 129.835 150.557C127.841 150.557 126.335 149.028 126.335 146.182C126.335 143.358 127.835 141.807 129.841 141.807C131.324 141.807 132.568 142.642 132.858 144.148H134.631ZM142.124 148.381C142.129 149.864 141.027 150.568 140.072 150.568C139.021 150.568 138.294 149.807 138.294 148.619V143.273H136.595V148.824C136.595 150.989 137.783 152.114 139.459 152.114C140.771 152.114 141.663 151.42 142.067 150.489H142.158V152H143.828V143.273H142.124V148.381ZM152.651 145.403C152.298 144.045 151.236 143.159 149.349 143.159C147.378 143.159 145.98 144.199 145.98 145.744C145.98 146.983 146.73 147.807 148.366 148.17L149.844 148.494C150.685 148.682 151.077 149.057 151.077 149.602C151.077 150.278 150.355 150.807 149.241 150.807C148.224 150.807 147.571 150.369 147.366 149.511L145.724 149.761C146.009 151.307 147.293 152.176 149.253 152.176C151.361 152.176 152.821 151.057 152.821 149.477C152.821 148.244 152.037 147.483 150.435 147.114L149.048 146.795C148.088 146.568 147.673 146.244 147.679 145.653C147.673 144.983 148.401 144.506 149.366 144.506C150.423 144.506 150.912 145.091 151.111 145.676L152.651 145.403ZM158.763 143.273H156.973V141.182H155.274V143.273H153.996V144.636H155.274V149.79C155.268 151.375 156.479 152.142 157.82 152.114C158.359 152.108 158.723 152.006 158.922 151.932L158.615 150.528C158.501 150.551 158.291 150.602 158.018 150.602C157.467 150.602 156.973 150.42 156.973 149.438V144.636H158.763V143.273ZM164.224 152.176C166.685 152.176 168.293 150.375 168.293 147.676C168.293 144.96 166.685 143.159 164.224 143.159C161.764 143.159 160.156 144.96 160.156 147.676C160.156 150.375 161.764 152.176 164.224 152.176ZM164.23 150.75C162.622 150.75 161.872 149.347 161.872 147.67C161.872 146 162.622 144.58 164.23 144.58C165.827 144.58 166.577 146 166.577 147.67C166.577 149.347 165.827 150.75 164.23 150.75ZM170.189 152H171.888V146.619C171.888 145.443 172.712 144.625 173.678 144.625C174.621 144.625 175.274 145.25 175.274 146.199V152H176.967V146.438C176.967 145.386 177.609 144.625 178.717 144.625C179.615 144.625 180.354 145.125 180.354 146.307V152H182.053V146.148C182.053 144.153 180.939 143.159 179.359 143.159C178.104 143.159 177.161 143.761 176.74 144.693H176.649C176.268 143.739 175.467 143.159 174.303 143.159C173.149 143.159 172.291 143.733 171.928 144.693H171.82V143.273H170.189V152ZM188.091 152.176C189.994 152.176 191.341 151.239 191.727 149.818L190.119 149.528C189.812 150.352 189.074 150.773 188.108 150.773C186.653 150.773 185.676 149.83 185.631 148.148H191.835V147.545C191.835 144.392 189.949 143.159 187.972 143.159C185.54 143.159 183.938 145.011 183.938 147.693C183.938 150.403 185.517 152.176 188.091 152.176ZM185.636 146.875C185.705 145.636 186.602 144.562 187.983 144.562C189.301 144.562 190.165 145.54 190.17 146.875H185.636ZM193.72 152H195.419V146.67C195.419 145.528 196.3 144.705 197.504 144.705C197.857 144.705 198.254 144.767 198.391 144.807V143.182C198.22 143.159 197.885 143.142 197.669 143.142C196.646 143.142 195.771 143.722 195.453 144.659H195.362V143.273H193.72V152ZM205.987 140.364H204.232V152H205.987V140.364ZM212.311 152C215.857 152 217.908 149.801 217.908 146.165C217.908 142.545 215.857 140.364 212.43 140.364H208.544V152H212.311ZM210.3 150.466V141.898H212.322C214.868 141.898 216.18 143.42 216.18 146.165C216.18 148.92 214.868 150.466 212.214 150.466H210.3Z" fill="#002E5A"/>
<path d="M252.5 19C252.5 14.8579 255.858 11.5 260 11.5C264.142 11.5 267.5 14.8579 267.5 19C267.5 23.1421 264.142 26.5 260 26.5C255.858 26.5 252.5 23.1421 252.5 19Z" fill="white" stroke="#002E5A"/>
<rect x="256.5" y="15.5" width="7" height="7" rx="3.5" fill="#002E5A" stroke="#002E5A"/>
<rect x="0.5" y="0.5" width="278" height="194" rx="7.5" stroke="#002E5A"/>
</svg>
