<svg width="16" height="15" viewBox="0 0 16 15" fill="none" xmlns="http://www.w3.org/2000/svg">
  <path d="M15.5139 5.05446L11.0338 0.574495C10.9229 0.463644 10.7917 0.408203 10.6401 0.408203C10.4884 0.408203 10.3571 0.463644 10.2463 0.574495C10.1355 0.685408 10.08 0.81667 10.08 0.968313V3.2083H8.12001C3.96068 3.2083 1.40873 4.38374 0.463602 6.73457C0.154524 7.51614 0 8.48751 0 9.64834C0 10.6166 0.370434 11.932 1.11124 13.5945C1.12871 13.6355 1.15923 13.7053 1.20306 13.8045C1.24686 13.9035 1.28618 13.991 1.32118 14.0669C1.3563 14.1427 1.39424 14.2069 1.43503 14.2593C1.50497 14.3585 1.58667 14.4082 1.68002 14.4082C1.76752 14.4082 1.83608 14.3791 1.8857 14.3207C1.93519 14.2624 1.95999 14.1894 1.95999 14.1022C1.95999 14.0495 1.95269 13.9723 1.93807 13.8702C1.92349 13.768 1.91616 13.6997 1.91616 13.6646C1.88696 13.2681 1.87237 12.9091 1.87237 12.5885C1.87237 11.9993 1.92349 11.4714 2.02548 11.0048C2.12763 10.538 2.26907 10.1342 2.44995 9.79287C2.6308 9.45146 2.86405 9.15709 3.14996 8.90916C3.43575 8.66122 3.74342 8.45858 4.073 8.30105C4.40264 8.14349 4.79054 8.01953 5.2368 7.92915C5.68302 7.83874 6.13216 7.776 6.5843 7.74097C7.03644 7.70594 7.54831 7.68853 8.12001 7.68853H10.08V9.92858C10.08 10.0802 10.1354 10.2115 10.2461 10.3223C10.3571 10.433 10.4883 10.4885 10.6399 10.4885C10.7915 10.4885 10.9228 10.433 11.0338 10.3223L15.5138 5.84219C15.6246 5.73134 15.68 5.60013 15.68 5.44846C15.68 5.29682 15.6246 5.16552 15.5139 5.05446Z" fill="#B50156" />
</svg>
