<svg width="64" height="64" viewBox="0 0 64 64" fill="none" xmlns="http://www.w3.org/2000/svg">
<path d="M31.9991 3.55566C26.3734 3.55566 20.8739 5.2239 16.1963 8.34942C11.5186 11.4749 7.8728 15.9173 5.7199 21.1149C3.56701 26.3124 3.00372 32.0317 4.10125 37.5493C5.19879 43.067 7.90786 48.1353 11.8859 52.1134C15.8639 56.0914 20.9322 58.8005 26.4499 59.898C31.9676 60.9955 37.6868 60.4322 42.8844 58.2793C48.0819 56.1265 52.5243 52.4807 55.6498 47.803C58.7754 43.1253 60.4436 37.6259 60.4436 32.0001C60.4436 24.4562 57.4468 17.2212 52.1124 11.8868C46.778 6.55248 39.5431 3.55566 31.9991 3.55566ZM50.5769 22.4534L27.2169 45.7957L13.4214 32.0001C12.9499 31.5286 12.685 30.8891 12.685 30.2223C12.685 29.5555 12.9499 28.916 13.4214 28.4445C13.8929 27.9731 14.5323 27.7082 15.1991 27.7082C15.8659 27.7082 16.5054 27.9731 16.9769 28.4445L27.2525 38.7201L47.0569 18.9334C47.2904 18.7 47.5675 18.5148 47.8726 18.3884C48.1776 18.2621 48.5045 18.1971 48.8347 18.1971C49.1649 18.1971 49.4918 18.2621 49.7968 18.3884C50.1019 18.5148 50.379 18.7 50.6125 18.9334C50.8459 19.1669 51.0311 19.4441 51.1575 19.7491C51.2838 20.0541 51.3489 20.3811 51.3489 20.7112C51.3489 21.0414 51.2838 21.3683 51.1575 21.6733C51.0311 21.9784 50.8459 22.2555 50.6125 22.489L50.5769 22.4534Z" fill="#5CB85C"/>
</svg>
