<svg width="14" height="14" viewBox="0 0 14 14" fill="none" xmlns="http://www.w3.org/2000/svg">
  <path fill-rule="evenodd" clip-rule="evenodd" d="M7.00004 0.583984C3.45629 0.583984 0.583374 3.4569 0.583374 7.00065C0.583374 10.5444 3.45629 13.4173 7.00004 13.4173C10.5438 13.4173 13.4167 10.5444 13.4167 7.00065C13.4167 3.4569 10.5438 0.583984 7.00004 0.583984ZM6.70837 3.50065C6.55366 3.50065 6.40529 3.56211 6.2959 3.67151C6.1865 3.7809 6.12504 3.92927 6.12504 4.08398C6.12504 4.23869 6.1865 4.38707 6.2959 4.49646C6.40529 4.60586 6.55366 4.66732 6.70837 4.66732H7.00004C7.15475 4.66732 7.30312 4.60586 7.41252 4.49646C7.52192 4.38707 7.58337 4.23869 7.58337 4.08398C7.58337 3.92927 7.52192 3.7809 7.41252 3.67151C7.30312 3.56211 7.15475 3.50065 7.00004 3.50065H6.70837ZM5.83337 5.83398C5.67866 5.83398 5.53029 5.89544 5.4209 6.00484C5.3115 6.11423 5.25004 6.26261 5.25004 6.41732C5.25004 6.57203 5.3115 6.7204 5.4209 6.8298C5.53029 6.93919 5.67866 7.00065 5.83337 7.00065H6.41671V8.75065H5.83337C5.67866 8.75065 5.53029 8.81211 5.4209 8.9215C5.3115 9.0309 5.25004 9.17927 5.25004 9.33398C5.25004 9.48869 5.3115 9.63707 5.4209 9.74646C5.53029 9.85586 5.67866 9.91732 5.83337 9.91732H8.16671C8.32142 9.91732 8.46979 9.85586 8.57919 9.74646C8.68858 9.63707 8.75004 9.48869 8.75004 9.33398C8.75004 9.17927 8.68858 9.0309 8.57919 8.9215C8.46979 8.81211 8.32142 8.75065 8.16671 8.75065H7.58337V6.41732C7.58337 6.26261 7.52192 6.11423 7.41252 6.00484C7.30312 5.89544 7.15475 5.83398 7.00004 5.83398H5.83337Z" fill="#5CB85C" />
</svg>
