<svg width="16" height="16" viewBox="0 0 16 16" fill="none" xmlns="http://www.w3.org/2000/svg">
  <path d="M8 0.888916C6.59355 0.888916 5.21869 1.30598 4.04927 2.08735C2.87986 2.86873 1.96841 3.97934 1.43019 5.27872C0.891963 6.57811 0.751139 8.00792 1.02552 9.38734C1.29991 10.7668 1.97717 12.0338 2.97168 13.0283C3.96619 14.0228 5.23327 14.7001 6.61269 14.9745C7.99211 15.2489 9.42191 15.1081 10.7213 14.5698C12.0207 14.0316 13.1313 13.1202 13.9127 11.9507C14.694 10.7813 15.1111 9.40647 15.1111 8.00003C15.1111 6.11404 14.3619 4.3053 13.0283 2.97171C11.6947 1.63812 9.88598 0.888916 8 0.888916ZM12.6444 5.61336L6.80444 11.4489L3.35555 8.00003C3.23768 7.88215 3.17146 7.72228 3.17146 7.55558C3.17146 7.38888 3.23768 7.22901 3.35555 7.11114C3.47343 6.99326 3.6333 6.92704 3.8 6.92704C3.96669 6.92704 4.12657 6.99326 4.24444 7.11114L6.81333 9.68003L11.7644 4.73336C11.8228 4.67499 11.8921 4.6287 11.9684 4.59711C12.0446 4.56552 12.1263 4.54927 12.2089 4.54927C12.2914 4.54927 12.3732 4.56552 12.4494 4.59711C12.5257 4.6287 12.595 4.67499 12.6533 4.73336C12.7117 4.79173 12.758 4.86102 12.7896 4.93727C12.8212 5.01353 12.8374 5.09526 12.8374 5.1778C12.8374 5.26035 12.8212 5.34208 12.7896 5.41834C12.758 5.49459 12.7117 5.56388 12.6533 5.62225L12.6444 5.61336Z" fill="#5CB85C" />
</svg>
