<svg width="14" height="14" viewBox="0 0 14 14" fill="none" xmlns="http://www.w3.org/2000/svg">
  <path d="M13.9435 13.2695L7.44351 0.769482C7.40128 0.688349 7.33759 0.620358 7.25939 0.572907C7.1812 0.525457 7.09148 0.500366 7.00001 0.500366C6.90855 0.500366 6.81883 0.525457 6.74063 0.572907C6.66243 0.620358 6.59875 0.688349 6.55651 0.769482L0.0565135 13.2695C0.0169289 13.3457 -0.00236504 13.4308 0.000490166 13.5166C0.00334537 13.6024 0.0282536 13.6861 0.0728153 13.7595C0.117377 13.8329 0.18009 13.8935 0.254913 13.9357C0.329736 13.9778 0.414147 13.9999 0.500014 14H13.5C13.5859 13.9999 13.6703 13.9778 13.7451 13.9357C13.8199 13.8935 13.8827 13.8329 13.9272 13.7595C13.9718 13.6861 13.9967 13.6024 13.9995 13.5166C14.0024 13.4308 13.9831 13.3457 13.9435 13.2695ZM6.43751 4.49998H7.56251V9.49998H6.43751V4.49998ZM7.00001 12.5C6.85168 12.5 6.70667 12.456 6.58334 12.3736C6.46 12.2912 6.36387 12.174 6.3071 12.037C6.25034 11.8999 6.23549 11.7492 6.26442 11.6037C6.29336 11.4582 6.36479 11.3245 6.46968 11.2197C6.57457 11.1148 6.70821 11.0433 6.8537 11.0144C6.99918 10.9855 7.14998 11.0003 7.28703 11.0571C7.42407 11.1138 7.5412 11.21 7.62362 11.3333C7.70603 11.4566 7.75001 11.6016 7.75001 11.75C7.75001 11.9489 7.671 12.1397 7.53034 12.2803C7.38969 12.421 7.19893 12.5 7.00001 12.5Z" fill="#F0AD4E" />
</svg>
