<svg width="50" height="50" viewBox="0 0 50 50" fill="none" xmlns="http://www.w3.org/2000/svg">
  <circle cx="25" cy="25" r="25" fill="#002A52" />
  <path d="M14.8679 19.2715C14.9573 18.7651 15.0369 18.2586 15.1376 17.7522C15.5926 15.4577 15.0564 15.8168 17.5502 15.768C18.1076 15.7572 18.2658 15.9685 18.159 16.5193C17.8801 17.958 17.665 19.3983 17.385 20.837C16.9468 23.0838 17.5161 22.7382 14.9486 22.7788C14.4308 22.787 14.2672 22.5827 14.3701 22.0698C14.5564 21.1376 14.7054 20.2043 14.8679 19.2715ZM26.2884 17.9434C25.5393 17.9434 24.7934 17.9206 24.0399 17.9526C23.6483 17.9694 23.0335 17.7446 22.9138 18.3242C22.7795 18.9752 23.4972 18.7824 23.905 18.7889C25.425 18.8149 26.9535 18.7949 28.4767 18.8057C28.8093 18.8084 29.2719 18.7434 29.1998 19.2423C29.1262 19.7509 28.6928 19.6973 28.3505 19.7049C27.8673 19.7152 27.375 19.7504 26.9075 19.7C25.8691 19.589 24.957 19.8858 24.0735 20.6766C23.3173 21.3532 22.4258 21.7713 21.4594 21.7897C20.5738 21.8071 19.6952 21.7767 18.8085 21.8055C18.2408 21.8233 18.0886 21.5752 18.1937 21.039C18.3865 20.0494 18.568 19.0587 18.7148 18.0696C18.7982 17.5057 19.1102 17.1888 19.6324 16.9445C21.3294 16.1505 23.0573 15.5097 24.8324 15.1792C26.1042 14.9425 27.4259 14.6831 28.513 15.2773C30.827 16.5421 33.1042 17.8616 35.3922 19.1648C35.5536 19.2569 35.8407 19.2954 35.7681 19.5554C35.7004 19.7991 35.4193 19.8251 35.2085 19.8869C34.0483 20.227 33.0928 19.9475 32.2061 19.4297C30.456 18.4081 28.6658 17.4694 26.2884 17.9434ZM14.0061 19.278C13.8024 20.4285 13.6128 21.5785 13.3918 22.7285C13.2689 23.3698 13.4839 23.6628 14.1399 23.6444C14.9188 23.6222 15.6928 23.6368 16.4674 23.6422C17.0378 23.646 17.5957 23.6975 17.9202 22.9359C18.0534 22.6234 18.3963 22.6694 18.6601 22.6667C19.3838 22.6597 20.1042 22.6705 20.8278 22.6597C22.0758 22.6407 23.2843 22.3276 24.3357 21.4133C25.1276 20.7254 25.9417 20.4627 26.8658 20.558C27.3338 20.6062 27.8262 20.5694 28.3088 20.5607C28.9079 20.5504 29.4723 20.3679 29.8439 19.7991C30.1223 19.3734 30.3449 19.4465 30.645 19.6095C31.2132 19.9183 31.7939 20.2092 32.3805 20.4897C33.401 20.9783 34.5233 20.9886 35.722 20.5472C36.1928 20.3738 36.6185 20.0895 36.7328 19.5689C36.8417 19.0722 36.527 18.8122 36.1689 18.608C33.7525 17.2273 31.3519 15.826 28.9133 14.481C27.7606 13.8451 26.3648 14.0829 25.0035 14.3267C23.2556 14.6397 21.5466 15.2356 19.8707 15.9923C19.3897 16.2095 18.9959 16.391 19.1297 15.6299C19.2261 15.0823 18.9022 14.9062 18.4012 14.91C17.4635 14.9176 16.527 14.9192 15.5926 14.9095C15.0168 14.9035 14.7222 15.1863 14.6268 15.7475C14.427 16.924 14.2141 18.101 14.0061 19.278Z" fill="white" />
  <path d="M22.4572 26.1279C22.6961 24.7125 23.8731 23.6698 25.2571 23.6487C26.6573 23.627 27.6003 24.7033 27.3788 26.07C27.1583 27.4306 25.8399 28.5475 24.4511 28.5492C23.0617 28.5508 22.221 27.5303 22.4572 26.1279ZM28.1799 26.1095C28.506 24.2998 27.2455 22.769 25.4423 22.7853C23.6532 22.8015 21.9291 24.2873 21.6079 26.09C21.2861 27.8959 22.4708 29.3822 24.2555 29.412C26.0468 29.4424 27.8528 27.9225 28.1799 26.1095Z" fill="white" />
  <path d="M31.0141 33.0301C30.7525 34.4725 29.5413 35.4779 28.0902 35.4573C26.7544 35.4383 25.8639 34.3279 26.1104 32.9884C26.3612 31.6239 27.6845 30.5379 29.0766 30.5552C30.4421 30.572 31.2687 31.6282 31.0141 33.0301ZM31.877 33.0154C32.1987 31.2074 30.9312 29.6739 29.1329 29.695C27.3844 29.7156 25.5769 31.267 25.2719 33.0089C24.9577 34.8029 26.2371 36.3348 28.0376 36.3212C29.8078 36.3082 31.5595 34.7997 31.877 33.0154Z" fill="white" />
</svg>
