<svg width="50" height="50" viewBox="0 0 50 50" fill="none" xmlns="http://www.w3.org/2000/svg">
  <circle cx="25" cy="25" r="25" fill="#54616C" />
  <path d="M26.8054 23.21C26.6482 25.6326 26.6482 28.0827 26.8054 30.5047H25.2625C25.4197 28.0821 25.4197 25.6314 25.2625 23.21H26.8054Z" fill="white" />
  <path d="M32.6502 23.21C32.4929 25.6326 32.4929 28.0827 32.6502 30.5047H31.1072C31.2644 28.0821 31.2644 25.6314 31.1072 23.21H32.6502Z" fill="white" />
  <path d="M16.1775 32.5945C16.1775 32.7552 16.3084 32.8867 16.4697 32.8867H35.5976C35.7589 32.8867 35.8898 32.7552 35.8898 32.5945C35.8898 32.4332 35.7589 32.3022 35.5976 32.3022H16.4697C16.3078 32.3022 16.1775 32.4332 16.1775 32.5945Z" fill="white" />
  <path d="M37.1754 34.3735H14.8909C14.7296 34.3735 14.5986 34.5045 14.5986 34.6658C14.5986 34.8271 14.7296 34.958 14.8909 34.958H37.1754C37.3367 34.958 37.4677 34.8271 37.4677 34.6658C37.4677 34.5045 37.3379 34.3735 37.1754 34.3735Z" fill="white" />
  <path d="M20.9601 30.5052H19.4177C19.5744 28.0826 19.5744 25.6319 19.4177 23.2104H20.9601C20.8041 25.6319 20.8041 28.0826 20.9601 30.5052Z" fill="white" />
  <path d="M25.3671 17.6029C25.4402 17.576 25.4998 17.5211 25.5313 17.4509C25.5629 17.3808 25.5682 17.3001 25.5407 17.2271C25.4986 17.1108 25.4986 16.9822 25.5407 16.8659C25.5898 16.7338 25.6856 16.6292 25.8136 16.5701C25.941 16.5117 26.0831 16.5064 26.2157 16.5544C26.3472 16.6023 26.4519 16.6987 26.5103 16.8267C26.5699 16.9541 26.5752 17.0967 26.5267 17.2283C26.4998 17.3013 26.5033 17.382 26.536 17.4521C26.5688 17.5222 26.6278 17.5772 26.7003 17.6046L33.8775 20.24L33.67 21.5878H20.9246C21.5944 20.8397 22.0228 19.873 22.0888 18.8087L25.3671 17.6029Z" fill="white" />
  <path d="M17.4936 14.4922C15.2738 14.4922 13.4678 16.2982 13.4678 18.518C13.4678 20.7372 15.2738 22.5432 17.4936 22.5432C19.7134 22.5432 21.5188 20.7372 21.5188 18.518C21.5188 16.2976 19.7134 14.4922 17.4936 14.4922ZM20.0658 18.8096H17.7864V21.0891C17.7864 21.2498 17.6549 21.3813 17.4942 21.3813C17.3329 21.3813 17.2019 21.2498 17.2019 21.0891V18.8096H14.9225C14.7612 18.8096 14.6303 18.6787 14.6303 18.5174C14.6303 18.3561 14.7612 18.2252 14.9225 18.2252H17.2019V15.9452C17.2019 15.7844 17.3329 15.6529 17.4942 15.6529C17.6549 15.6529 17.7864 15.7844 17.7864 15.9452V18.2252H20.0658C20.2271 18.2252 20.3581 18.3561 20.3581 18.5174C20.3581 18.6787 20.2271 18.8096 20.0658 18.8096Z" fill="white" />
</svg>
