<svg width="50" height="50" viewBox="0 0 50 50" fill="none" xmlns="http://www.w3.org/2000/svg">
  <circle cx="25" cy="25" r="25" fill="#002A52" />
  <path d="M32.9443 16H26.6109V18.1111H30.3969L15.9709 32.537L17.4628 34.0289L31.8887 19.603V23.3889H33.9998V17.0556C33.9998 16.7756 33.8886 16.5071 33.6907 16.3092C33.4927 16.1112 33.2242 16 32.9443 16Z" fill="white" />
  <path d="M18.8704 23.7407C19.6359 23.7407 20.3842 23.5137 21.0206 23.0885C21.6571 22.6632 22.1532 22.0587 22.4461 21.3515C22.7391 20.6443 22.8157 19.8661 22.6664 19.1153C22.517 18.3645 22.1484 17.6749 21.6071 17.1336C21.0659 16.5923 20.3762 16.2237 19.6254 16.0744C18.8747 15.925 18.0965 16.0017 17.3892 16.2946C16.682 16.5876 16.0776 17.0836 15.6523 17.7201C15.227 18.3566 15 19.1049 15 19.8704C15 20.8969 15.4078 21.8813 16.1336 22.6071C16.8594 23.333 17.8439 23.7407 18.8704 23.7407ZM18.8704 18.1111C19.2183 18.1111 19.5585 18.2143 19.8478 18.4076C20.1371 18.6009 20.3626 18.8757 20.4957 19.1971C20.6289 19.5186 20.6637 19.8723 20.5958 20.2136C20.5279 20.5548 20.3604 20.8683 20.1144 21.1144C19.8683 21.3604 19.5548 21.5279 19.2136 21.5958C18.8723 21.6637 18.5186 21.6289 18.1971 21.4957C17.8757 21.3626 17.6009 21.1371 17.4076 20.8478C17.2143 20.5585 17.1111 20.2183 17.1111 19.8704C17.1111 19.4038 17.2965 18.9563 17.6264 18.6264C17.9563 18.2965 18.4038 18.1111 18.8704 18.1111Z" fill="white" />
  <path d="M30.1296 27.2593C29.3642 27.2593 28.6159 27.4863 27.9794 27.9116C27.3429 28.3368 26.8468 28.9413 26.5539 29.6485C26.261 30.3557 26.1843 31.1339 26.3336 31.8847C26.483 32.6355 26.8516 33.3251 27.3929 33.8664C27.9342 34.4077 28.6238 34.7763 29.3746 34.9257C30.1254 35.075 30.9036 34.9983 31.6108 34.7054C32.318 34.4125 32.9225 33.9164 33.3477 33.2799C33.773 32.6434 34 31.8951 34 31.1296C34 30.1032 33.5922 29.1187 32.8664 28.3929C32.1406 27.667 31.1561 27.2593 30.1296 27.2593ZM30.1296 32.8889C29.7817 32.8889 29.4416 32.7857 29.1523 32.5924C28.8629 32.3991 28.6375 32.1244 28.5043 31.8029C28.3712 31.4814 28.3363 31.1277 28.4042 30.7864C28.4721 30.4452 28.6396 30.1317 28.8857 29.8857C29.1317 29.6396 29.4452 29.4721 29.7864 29.4042C30.1277 29.3363 30.4814 29.3712 30.8029 29.5043C31.1243 29.6375 31.3991 29.8629 31.5924 30.1523C31.7857 30.4416 31.8889 30.7817 31.8889 31.1296C31.8889 31.5962 31.7036 32.0437 31.3736 32.3736C31.0437 32.7036 30.5962 32.8889 30.1296 32.8889Z" fill="white" />
</svg>
