<svg width="50" height="50" viewBox="0 0 50 50" fill="none" xmlns="http://www.w3.org/2000/svg">
  <circle cx="25" cy="25" r="25" fill="#54616C" />
  <path d="M34.4675 15.7092C34.4385 15.6615 34.4017 15.6186 34.3566 15.5863L31.7519 13.1148C31.6563 13.024 31.5256 12.9877 31.3994 13.0075C31.3754 13.0031 31.3506 13 31.325 13H18.3684C18.1374 13 17.9505 13.187 17.9505 13.418V14.9505H16.418C16.187 14.9505 16 15.1374 16 15.3684V37.102C16 37.3328 16.187 37.52 16.418 37.52H32.0216C32.2523 37.52 32.4395 37.3328 32.4395 37.102V35.5695H34.2507C34.4814 35.5695 34.6686 35.3823 34.6686 35.1516V16.065C34.6686 15.914 34.5876 15.7827 34.4675 15.7092ZM31.6036 36.6841H16.8359V15.7864H17.9505V35.1516C17.9505 35.3823 18.1374 35.5695 18.3684 35.5695H31.6036V36.6841ZM18.7864 34.7336V13.8359H31.0464V15.9257C31.0464 16.1567 31.2336 16.3436 31.4643 16.3436H33.8327V34.7336H18.7864Z" fill="white" />
  <path d="M31.3249 18.2939H21.294C21.1402 18.2939 21.0154 18.4188 21.0154 18.5726C21.0154 18.7264 21.1402 18.8512 21.294 18.8512H31.3249C31.479 18.8512 31.6036 18.7264 31.6036 18.5726C31.6036 18.4188 31.479 18.2939 31.3249 18.2939Z" fill="white" />
  <path d="M31.3249 22.1948H21.294C21.1402 22.1948 21.0154 22.3197 21.0154 22.4735C21.0154 22.6273 21.1402 22.7521 21.294 22.7521H31.3249C31.479 22.7521 31.6036 22.6273 31.6036 22.4735C31.6036 22.3197 31.479 22.1948 31.3249 22.1948Z" fill="white" />
  <path d="M31.3249 25.5386H21.294C21.1402 25.5386 21.0154 25.6631 21.0154 25.8172C21.0154 25.9713 21.1402 26.0958 21.294 26.0958H31.3249C31.479 26.0958 31.6036 25.9713 31.6036 25.8172C31.6036 25.6631 31.479 25.5386 31.3249 25.5386Z" fill="white" />
  <path d="M31.3249 29.1611H21.294C21.1402 29.1611 21.0154 29.2857 21.0154 29.4398C21.0154 29.5939 21.1402 29.7184 21.294 29.7184H31.3249C31.479 29.7184 31.6036 29.5939 31.6036 29.4398C31.6036 29.2857 31.479 29.1611 31.3249 29.1611Z" fill="white" />
</svg>
