<svg width="50" height="50" viewBox="0 0 50 50" fill="none" xmlns="http://www.w3.org/2000/svg">
  <circle cx="25" cy="25" r="25" fill="#002A52" />
  <path d="M14.4225 31.3903C14.3337 31.8941 14.2356 32.3978 14.1576 32.9011C13.8055 35.1826 13.3982 34.8256 15.8612 34.8738C16.412 34.8846 16.6433 34.6745 16.73 34.1268C16.957 32.6963 17.2484 31.2641 17.4743 29.8336C17.8269 27.5992 18.2716 27.9432 15.7328 27.9025C15.2209 27.8944 14.9864 28.0975 14.9084 28.6078C14.7675 29.5346 14.5877 30.4625 14.4225 31.3903ZM25.3127 32.7104C24.5679 32.7104 23.8183 32.7331 23.0805 32.7012C22.697 32.6844 22.0069 32.9081 22.0909 32.3312C22.1851 31.6839 22.8313 31.8757 23.2398 31.8686C24.7602 31.8432 26.2731 31.8632 27.7914 31.8518C28.1229 31.8491 28.56 31.9136 28.6635 31.4174C28.7691 30.9115 28.319 30.9651 27.9815 30.9576C27.5048 30.9473 27.0276 30.9126 26.545 30.9624C25.4736 31.0729 24.6708 30.7777 24.0696 29.9912C23.555 29.3185 22.8145 28.903 21.8612 28.884C20.987 28.8667 20.103 28.8965 19.2309 28.8683C18.673 28.8505 18.4346 29.0975 18.3507 29.6305C18.1958 30.6141 18.0289 31.5994 17.8274 32.5831C17.7126 33.1437 17.9119 33.459 18.3458 33.7016C19.7547 34.4914 21.2486 35.1284 22.8974 35.4566C24.0788 35.6923 25.3024 35.9501 26.5916 35.3591C29.3362 34.1014 32.063 32.7895 34.7951 31.4933C34.9874 31.4023 35.2864 31.3638 35.3059 31.1049C35.3243 30.8622 35.054 30.8368 34.8655 30.7756C33.8315 30.437 32.7834 30.7154 31.7201 31.23C29.619 32.2489 27.5097 33.1816 25.3127 32.7104ZM13.5678 31.3833C13.7687 30.2398 13.9832 29.0958 14.1668 27.9524C14.2692 27.3148 14.5861 27.0234 15.2318 27.0418C15.9988 27.0635 16.7728 27.0494 17.5452 27.044C18.1134 27.0402 18.6865 26.9893 18.7423 27.7465C18.765 28.0575 19.122 28.012 19.3836 28.0141C20.1003 28.0212 20.8207 28.0103 21.5368 28.0212C22.7712 28.0401 23.8627 28.3516 24.588 29.2605C25.134 29.9446 25.8517 30.2057 26.8034 30.1109C27.2855 30.0627 27.7621 30.1001 28.2393 30.1082C28.8314 30.1185 29.3281 30.3 29.4987 30.8655C29.626 31.2885 29.8735 31.2159 30.2283 31.054C30.9016 30.7468 31.5814 30.4581 32.2628 30.1786C33.4485 29.6928 34.5682 29.683 35.6055 30.1212C36.0128 30.2935 36.3367 30.5762 36.2674 31.0941C36.2013 31.5881 35.7978 31.8464 35.3698 32.0496C32.4844 33.4216 29.606 34.8142 26.7091 36.1521C25.3403 36.7843 24.0355 36.5476 22.7674 36.3054C21.1392 35.9945 19.6485 35.4019 18.2478 34.649C17.8458 34.4329 17.5176 34.2525 17.3838 35.0098C17.2879 35.5541 16.9039 35.7291 16.4072 35.7253C15.4777 35.7177 14.5471 35.7166 13.6143 35.7259C13.0391 35.7318 12.8457 35.4507 12.9475 34.8928C13.161 33.7244 13.3619 32.5538 13.5678 31.3833Z" fill="white" />
  <path d="M24.373 24.5723C24.1141 25.9795 24.919 27.0163 26.2873 27.038C27.6718 27.0596 28.9869 25.9893 29.2458 24.6303C29.5042 23.2772 28.5845 22.1668 27.2043 22.1651C25.8236 22.163 24.6298 23.178 24.373 24.5723ZM30.0567 24.5907C29.7463 26.3901 27.9561 27.9122 26.1692 27.896C24.3963 27.8797 23.203 26.402 23.5156 24.6102C23.8286 22.8146 25.5279 21.3369 27.3132 21.3066C29.1045 21.2768 30.3671 22.788 30.0567 24.5907Z" fill="white" />
  <path d="M35.3022 17.7097C35.5476 16.2754 34.6961 15.2755 33.246 15.2966C31.9114 15.3156 30.6368 16.4195 30.4115 17.7515C30.1824 19.1083 31.1178 20.1879 32.5077 20.1711C33.8711 20.1543 35.0639 19.104 35.3022 17.7097ZM36.1548 17.7244C35.8406 19.5222 34.0423 21.0475 32.2618 21.0264C30.5301 21.0058 29.2773 19.4631 29.5849 17.7314C29.9018 15.9477 31.7104 14.4245 33.4963 14.4381C35.2518 14.4505 36.4651 15.9504 36.1548 17.7244Z" fill="white" />
</svg>
