<svg width="24" height="24" viewBox="0 0 24 24" fill="none" xmlns="http://www.w3.org/2000/svg">
  <path d="M19.875 2H17.625C17.3266 2 17.0405 2.11853 16.8295 2.3295C16.6185 2.54048 16.5 2.82663 16.5 3.125V22.241H21V3.125C21 2.82663 20.8815 2.54048 20.6705 2.3295C20.4595 2.11853 20.1734 2 19.875 2ZM13.125 8.75H10.875C10.5766 8.75 10.2905 8.86853 10.0795 9.0795C9.86853 9.29048 9.75 9.57663 9.75 9.875V22.241H14.25V9.875C14.25 9.57663 14.1315 9.29048 13.9205 9.0795C13.7095 8.86853 13.4234 8.75 13.125 8.75ZM6.375 15.5H4.125C3.82663 15.5 3.54048 15.6185 3.3295 15.8295C3.11853 16.0405 3 16.3266 3 16.625V22.241H7.5V16.625C7.5 16.3266 7.38147 16.0405 7.1705 15.8295C6.95952 15.6185 6.67337 15.5 6.375 15.5Z" fill="#8E9AA4" />
</svg>
