<svg width="24" height="24" viewBox="0 0 24 24" fill="none" xmlns="http://www.w3.org/2000/svg">
  <path d="M16.708 10.208C16.801 10.115 16.8747 10.0046 16.925 9.88317C16.9754 9.76169 17.0013 9.63149 17.0013 9.5C17.0013 9.36851 16.9754 9.23831 16.925 9.11683C16.8747 8.99535 16.801 8.88498 16.708 8.792C16.615 8.69902 16.5046 8.62527 16.3832 8.57495C16.2617 8.52463 16.1315 8.49874 16 8.49874C15.8685 8.49874 15.7383 8.52463 15.6168 8.57495C15.4954 8.62527 15.385 8.69902 15.292 8.792L11 13.086L8.708 10.792C8.61502 10.699 8.50465 10.6253 8.38317 10.575C8.26169 10.5246 8.13149 10.4987 8 10.4987C7.86851 10.4987 7.73831 10.5246 7.61683 10.575C7.49535 10.6253 7.38498 10.699 7.292 10.792C7.19902 10.885 7.12527 10.9954 7.07495 11.1168C7.02464 11.2383 6.99874 11.3685 6.99874 11.5C6.99874 11.6315 7.02464 11.7617 7.07495 11.8832C7.12527 12.0046 7.19902 12.115 7.292 12.208L10.292 15.208C10.3849 15.3011 10.4952 15.375 10.6167 15.4254C10.7382 15.4758 10.8685 15.5018 11 15.5018C11.1315 15.5018 11.2618 15.4758 11.3833 15.4254C11.5048 15.375 11.6151 15.3011 11.708 15.208L16.708 10.208ZM12 2C9.34784 2 6.8043 3.05357 4.92893 4.92893C3.05357 6.8043 2 9.34784 2 12C2 14.6522 3.05357 17.1957 4.92893 19.0711C6.8043 20.9464 9.34784 22 12 22C14.6522 22 17.1957 20.9464 19.0711 19.0711C20.9464 17.1957 22 14.6522 22 12C22 9.34784 20.9464 6.8043 19.0711 4.92893C17.1957 3.05357 14.6522 2 12 2ZM4 12C4 9.87827 4.84285 7.84344 6.34315 6.34315C7.84344 4.84285 9.87827 4 12 4C14.1217 4 16.1566 4.84285 17.6569 6.34315C19.1571 7.84344 20 9.87827 20 12C20 14.1217 19.1571 16.1566 17.6569 17.6569C16.1566 19.1571 14.1217 20 12 20C9.87827 20 7.84344 19.1571 6.34315 17.6569C4.84285 16.1566 4 14.1217 4 12Z" fill="#8E9AA4" />
</svg>
