<svg width="24" height="24" viewBox="0 0 24 24" fill="none" xmlns="http://www.w3.org/2000/svg">
  <path d="M7.38825 4.3065C8.3745 3.1005 9.90075 2.25 12 2.25C13.275 2.25 14.7615 2.6715 15.9435 3.63825C17.0092 4.5105 17.7983 5.8035 17.9662 7.54275C18.9998 7.6665 20.0018 8.055 20.802 8.67375C21.7973 9.44175 22.5 10.5855 22.5 12C22.5 12.3472 22.47 12.684 22.407 13.0065C21.6026 11.8556 20.4594 10.9843 19.1364 10.5137C17.8135 10.0432 16.3768 9.9969 15.0263 10.3813C13.6759 10.7658 12.4789 11.5618 11.6021 12.6585C10.7254 13.7552 10.2124 15.098 10.1347 16.5H6.75C4.71975 16.5 3.36375 15.885 2.529 14.9318C1.713 13.9988 1.5 12.8588 1.5 12C1.5 10.233 2.9475 7.8525 6.04275 7.53525C6.17175 6.44325 6.59775 5.27325 7.38825 4.3065ZM22.5 16.875C22.5 18.3668 21.9074 19.7976 20.8525 20.8525C19.7976 21.9074 18.3668 22.5 16.875 22.5C15.3832 22.5 13.9524 21.9074 12.8975 20.8525C11.8426 19.7976 11.25 18.3668 11.25 16.875C11.25 15.3832 11.8426 13.9524 12.8975 12.8975C13.9524 11.8426 15.3832 11.25 16.875 11.25C18.3668 11.25 19.7976 11.8426 20.8525 12.8975C21.9074 13.9524 22.5 15.3832 22.5 16.875ZM13.665 17.835L16.665 20.835C16.7705 20.9403 16.9134 20.9995 17.0625 20.9995C17.2116 20.9995 17.3545 20.9403 17.46 20.835L20.46 17.835C20.5153 17.7835 20.5596 17.7214 20.5903 17.6524C20.6211 17.5834 20.6376 17.5089 20.6389 17.4334C20.6403 17.3579 20.6264 17.2828 20.5981 17.2128C20.5698 17.1428 20.5277 17.0791 20.4743 17.0257C20.4209 16.9723 20.3572 16.9302 20.2872 16.9019C20.2172 16.8736 20.1421 16.8597 20.0666 16.8611C19.9911 16.8624 19.9166 16.8789 19.8476 16.9097C19.7786 16.9404 19.7165 16.9847 19.665 17.04L17.625 19.08V13.3125C17.625 13.1633 17.5657 13.0202 17.4602 12.9148C17.3548 12.8093 17.2117 12.75 17.0625 12.75C16.9133 12.75 16.7702 12.8093 16.6648 12.9148C16.5593 13.0202 16.5 13.1633 16.5 13.3125V19.08L14.46 17.04C14.4085 16.9847 14.3464 16.9404 14.2774 16.9097C14.2084 16.8789 14.1339 16.8624 14.0584 16.8611C13.9829 16.8597 13.9078 16.8736 13.8378 16.9019C13.7678 16.9302 13.7041 16.9723 13.6507 17.0257C13.5973 17.0791 13.5552 17.1428 13.5269 17.2128C13.4986 17.2828 13.4847 17.3579 13.4861 17.4334C13.4874 17.5089 13.5039 17.5834 13.5347 17.6524C13.5654 17.7214 13.6097 17.7835 13.665 17.835Z" fill="#8E9AA4" />
</svg>
