<svg width="24" height="24" viewBox="0 0 24 24" fill="none" xmlns="http://www.w3.org/2000/svg">
  <path d="M19.5 15.6C18.375 16.176 17.1 16.5 15.75 16.5C14.775 16.5 13.8405 16.3305 12.972 16.02L10.857 17.16C10.7476 17.2191 10.6251 17.25 10.5008 17.25C10.3764 17.25 10.2539 17.2191 10.1445 17.16L1.5 12.5055V19.5C1.5 20.2956 1.81607 21.0587 2.37868 21.6213C2.94129 22.1839 3.70435 22.5 4.5 22.5H16.5C17.2956 22.5 18.0587 22.1839 18.6213 21.6213C19.1839 21.0587 19.5 20.2956 19.5 19.5V15.6ZM7.533 7.5H4.5C3.70435 7.5 2.94129 7.81607 2.37868 8.37868C1.81607 8.94129 1.5 9.70435 1.5 10.5V10.8015L10.5 15.648L11.316 15.2085C10.0381 14.3952 9.00901 13.2455 8.34166 11.8857C7.67431 10.5258 7.39452 9.00842 7.533 7.5ZM9 8.25C9 9.13642 9.17459 10.0142 9.51381 10.8331C9.85303 11.6521 10.3502 12.3962 10.977 13.023C11.6038 13.6498 12.3479 14.147 13.1669 14.4862C13.9858 14.8254 14.8636 15 15.75 15C16.6364 15 17.5142 14.8254 18.3331 14.4862C19.1521 14.147 19.8962 13.6498 20.523 13.023C21.1498 12.3962 21.647 11.6521 21.9862 10.8331C22.3254 10.0142 22.5 9.13642 22.5 8.25C22.5 6.45979 21.7888 4.7429 20.523 3.47703C19.2571 2.21116 17.5402 1.5 15.75 1.5C13.9598 1.5 12.2429 2.21116 10.977 3.47703C9.71116 4.7429 9 6.45979 9 8.25ZM17.094 4.344C17.1637 4.27415 17.2464 4.21874 17.3376 4.18093C17.4287 4.14312 17.5263 4.12366 17.625 4.12366C17.7237 4.12366 17.8213 4.14312 17.9124 4.18093C18.0036 4.21874 18.0863 4.27415 18.156 4.344L20.781 6.969C20.9211 7.10913 21 7.29899 21.0006 7.49713C21.0012 7.69527 20.9233 7.88558 20.784 8.0265L18.156 10.656C18.0152 10.7968 17.8242 10.8759 17.625 10.8759C17.4258 10.8759 17.2348 10.7968 17.094 10.656C16.9532 10.5152 16.8741 10.3242 16.8741 10.125C16.8741 9.92584 16.9532 9.73483 17.094 9.594L18.4395 8.25H16.125C15.4288 8.25 14.7611 8.52656 14.2688 9.01884C13.7766 9.51113 13.5 10.1788 13.5 10.875V11.25C13.5 11.4489 13.421 11.6397 13.2803 11.7803C13.1397 11.921 12.9489 12 12.75 12C12.5511 12 12.3603 11.921 12.2197 11.7803C12.079 11.6397 12 11.4489 12 11.25V10.875C12 9.78098 12.4346 8.73177 13.2082 7.95818C13.9818 7.1846 15.031 6.75 16.125 6.75H18.4395L17.094 5.406C17.0242 5.33633 16.9687 5.25357 16.9309 5.16245C16.8931 5.07133 16.8737 4.97365 16.8737 4.875C16.8737 4.77635 16.8931 4.67867 16.9309 4.58755C16.9687 4.49643 17.0242 4.41367 17.094 4.344Z" fill="#8E9AA4" />
</svg>
