<svg width="18" height="18" viewBox="0 0 18 18" fill="none" xmlns="http://www.w3.org/2000/svg">
  <path d="M3.8625 2.25C3.08674 2.25 2.34276 2.55817 1.79421 3.10671C1.24567 3.65526 0.9375 4.39924 0.9375 5.175V12.825C0.9375 13.6008 1.24567 14.3447 1.79421 14.8933C2.34276 15.4418 3.08674 15.75 3.8625 15.75H11.5125C12.2883 15.75 13.0322 15.4418 13.5808 14.8933C14.1293 14.3447 14.4375 13.6008 14.4375 12.825V5.175C14.4375 4.39924 14.1293 3.65526 13.5808 3.10671C13.0322 2.55817 12.2883 2.25 11.5125 2.25H3.8625ZM9.7125 6.3C9.7125 6.56593 9.66012 6.82925 9.55836 7.07493C9.45659 7.32062 9.30743 7.54385 9.11939 7.73189C8.93135 7.91993 8.70812 8.06909 8.46243 8.17086C8.21675 8.27262 7.95343 8.325 7.6875 8.325C7.42157 8.325 7.15825 8.27262 6.91257 8.17086C6.66688 8.06909 6.44365 7.91993 6.25561 7.73189C6.06757 7.54385 5.91841 7.32062 5.81664 7.07493C5.71488 6.82925 5.6625 6.56593 5.6625 6.3C5.6625 5.76294 5.87585 5.24787 6.25561 4.86811C6.63537 4.48835 7.15044 4.275 7.6875 4.275C8.22456 4.275 8.73963 4.48835 9.11939 4.86811C9.49915 5.24787 9.7125 5.76294 9.7125 6.3ZM10.3875 9.225C10.7455 9.225 11.0889 9.36723 11.3421 9.62041C11.5953 9.87358 11.7375 10.217 11.7375 10.575V11.025C11.7375 11.4714 11.6601 11.799 11.5089 12.069C11.3577 12.3417 11.1219 12.5748 10.7727 12.816C10.113 13.2687 9.1005 13.5 7.6875 13.5C6.4995 13.5 5.487 13.2687 4.7715 12.816C4.3944 12.5766 4.1145 12.3444 3.9273 12.069C3.7428 11.799 3.6375 11.4714 3.6375 11.025V10.575C3.6375 10.217 3.77973 9.87358 4.03291 9.62041C4.28608 9.36723 4.62946 9.225 4.9875 9.225H10.3875Z" fill="#54616C" />
  <path d="M3.64651 16.65C3.91096 17.0641 4.27555 17.4049 4.70657 17.6409C5.13759 17.8769 5.62113 18.0004 6.11251 18H11.9625C14.5725 18 16.6875 15.885 16.6875 13.275V7.42498C16.6875 6.38998 16.1493 5.47918 15.3375 4.95898V13.275C15.3375 14.1701 14.9819 15.0285 14.349 15.6615C13.7161 16.2944 12.8576 16.65 11.9625 16.65H3.64651Z" fill="#54616C" />
</svg>
