<svg width="14" height="15" viewBox="0 0 14 15" fill="none" xmlns="http://www.w3.org/2000/svg">
  <g clip-path="url(#clip0)">
    <path d="M7 0.5C3.14005 0.5 0 3.64005 0 7.5C0 11.36 3.14005 14.5 7 14.5C10.86 14.5 14 11.36 14 7.5C14 3.64005 10.86 0.5 7 0.5ZM10.3291 11.1207C10.2153 11.2345 10.066 11.2917 9.9167 11.2917C9.76738 11.2917 9.61795 11.2345 9.5043 11.1207L6.5876 8.2041C6.47791 8.09505 6.4167 7.94679 6.4167 7.7917V4C6.4167 3.67743 6.67796 3.4167 7 3.4167C7.32204 3.4167 7.5833 3.67743 7.5833 4V7.5502L10.3291 10.2959C10.5571 10.524 10.5571 10.8927 10.3291 11.1207Z" fill="#A6B0B9" />
  </g>
  <defs>
    <clipPath id="clip0">
      <rect width="14" height="14" fill="white" transform="translate(0 0.5)" />
    </clipPath>
  </defs>
</svg>
