<svg width="18" height="18" viewBox="0 0 18 18" fill="none" xmlns="http://www.w3.org/2000/svg">
  <g clip-path="url(#clip0)">
    <path d="M1.5 5.325C1.5 4.4556 2.2056 3.75 3.075 3.75H15.225C16.0944 3.75 16.8 4.4556 16.8 5.325V12.975C16.8 13.3927 16.6341 13.7933 16.3387 14.0887C16.0433 14.3841 15.6427 14.55 15.225 14.55H3.075C2.65728 14.55 2.25668 14.3841 1.96131 14.0887C1.66594 13.7933 1.5 13.3927 1.5 12.975V5.325ZM4.2 4.875V5.775C4.2 5.95402 4.12888 6.12571 4.0023 6.2523C3.87571 6.37888 3.70402 6.45 3.525 6.45H2.625V7.8H3.525C3.79093 7.8 4.05425 7.74762 4.29993 7.64586C4.54562 7.54409 4.76885 7.39493 4.95689 7.20689C5.14493 7.01885 5.29409 6.79562 5.39586 6.54993C5.49762 6.30425 5.55 6.04093 5.55 5.775V4.875H4.2ZM9.15 11.4C9.68706 11.4 10.2021 11.1867 10.5819 10.8069C10.9617 10.4271 11.175 9.91206 11.175 9.375C11.175 8.83794 10.9617 8.32287 10.5819 7.94311C10.2021 7.56335 9.68706 7.35 9.15 7.35C8.61294 7.35 8.09787 7.56335 7.71811 7.94311C7.33835 8.32287 7.125 8.83794 7.125 9.375C7.125 9.91206 7.33835 10.4271 7.71811 10.8069C8.09787 11.1867 8.61294 11.4 9.15 11.4ZM2.625 11.85H3.525C3.70402 11.85 3.87571 11.9211 4.0023 12.0477C4.12888 12.1743 4.2 12.346 4.2 12.525V13.425H5.55V12.525C5.55 11.9879 5.33665 11.4729 4.95689 11.0931C4.57713 10.7133 4.06206 10.5 3.525 10.5H2.625V11.85ZM14.1 12.525C14.1 12.346 14.1711 12.1743 14.2977 12.0477C14.4243 11.9211 14.596 11.85 14.775 11.85H15.675V10.5H14.775C14.2379 10.5 13.7229 10.7133 13.3431 11.0931C12.9633 11.4729 12.75 11.9879 12.75 12.525V13.425H14.1V12.525ZM14.1 5.775V4.875H12.75V5.775C12.75 6.04093 12.8024 6.30425 12.9041 6.54993C13.0059 6.79562 13.1551 7.01885 13.3431 7.20689C13.7229 7.58665 14.2379 7.8 14.775 7.8H15.675V6.45H14.775C14.596 6.45 14.4243 6.37888 14.2977 6.2523C14.1711 6.12571 14.1 5.95402 14.1 5.775Z" fill="#54616C" />
    <path d="M3.6609 15.9002C3.89788 16.3109 4.23883 16.6518 4.64946 16.8888C5.06009 17.1258 5.52589 17.2505 6 17.2502H15.225C15.7864 17.2502 16.3423 17.1397 16.861 16.9248C17.3796 16.71 17.8509 16.3951 18.2479 15.9981C18.6449 15.6011 18.9597 15.1299 19.1746 14.6112C19.3894 14.0925 19.5 13.5366 19.5 12.9752V8.25023C19.5 7.25123 18.9573 6.37823 18.15 5.91113V12.9752C18.15 13.751 17.8418 14.495 17.2933 15.0435C16.7447 15.5921 16.0008 15.9002 15.225 15.9002H3.6609Z" fill="#54616C" />
  </g>
  <defs>
    <clipPath id="clip0">
      <rect width="18" height="18" fill="white" />
    </clipPath>
  </defs>
</svg>
