<svg width="18" height="18" viewBox="0 0 18 18" fill="none" xmlns="http://www.w3.org/2000/svg">
  <path d="M17.7746 8.78938C18.1008 8.43052 18.0693 7.8805 17.7042 7.56119L9.65976 0.522268C9.29462 0.202957 8.70922 0.209646 8.35177 0.537347L0.279982 7.93648C-0.077468 8.26418 -0.0950119 8.8135 0.241139 9.16291L0.44351 9.37367C0.77925 9.72308 1.32194 9.76474 1.65486 9.46644L2.2581 8.92621V16.8352C2.2581 17.3204 2.65129 17.7132 3.13618 17.7132H6.28258C6.76748 17.7132 7.16066 17.3204 7.16066 16.8352V11.3021H11.1739V16.8352C11.167 17.3201 11.5139 17.7129 11.9988 17.7129H15.3332C15.8181 17.7129 16.2113 17.3201 16.2113 16.8348V9.03758C16.2113 9.03758 16.3779 9.18356 16.5834 9.36422C16.7886 9.54453 17.2196 9.39996 17.5459 9.04075L17.7746 8.78938Z" fill="#54616C" />
</svg>
