<svg width="18" height="15" viewBox="0 0 18 15" fill="none" xmlns="http://www.w3.org/2000/svg">
  <path d="M3.6 4.1C3.3613 4.1 3.13239 4.19482 2.9636 4.3636C2.79482 4.53239 2.7 4.76131 2.7 5C2.7 5.2387 2.79482 5.46761 2.9636 5.6364C3.13239 5.80518 3.3613 5.9 3.6 5.9H7.2C7.43869 5.9 7.66761 5.80518 7.8364 5.6364C8.00518 5.46761 8.1 5.2387 8.1 5C8.1 4.76131 8.00518 4.53239 7.8364 4.3636C7.66761 4.19482 7.43869 4.1 7.2 4.1H3.6ZM8.1 7.7C8.1 7.46131 8.19482 7.23239 8.3636 7.0636C8.53239 6.89482 8.7613 6.8 9 6.8H12.6C12.8387 6.8 13.0676 6.89482 13.2364 7.0636C13.4052 7.23239 13.5 7.46131 13.5 7.7C13.5 7.93869 13.4052 8.16761 13.2364 8.3364C13.0676 8.50518 12.8387 8.6 12.6 8.6H9C8.7613 8.6 8.53239 8.50518 8.3636 8.3364C8.19482 8.16761 8.1 7.93869 8.1 7.7ZM11.7 9.5C11.4613 9.5 11.2324 9.59482 11.0636 9.7636C10.8948 9.93239 10.8 10.1613 10.8 10.4C10.8 10.6387 10.8948 10.8676 11.0636 11.0364C11.2324 11.2052 11.4613 11.3 11.7 11.3H14.4C14.6387 11.3 14.8676 11.2052 15.0364 11.0364C15.2052 10.8676 15.3 10.6387 15.3 10.4C15.3 10.1613 15.2052 9.93239 15.0364 9.7636C14.8676 9.59482 14.6387 9.5 14.4 9.5H11.7ZM2.925 0.5C2.14924 0.5 1.40526 0.808169 0.856713 1.35671C0.308169 1.90526 0 2.64924 0 3.425V11.975C0 12.7508 0.308169 13.4947 0.856713 14.0433C1.40526 14.5918 2.14924 14.9 2.925 14.9H15.075C15.4591 14.9 15.8395 14.8243 16.1943 14.6773C16.5492 14.5304 16.8717 14.3149 17.1433 14.0433C17.4149 13.7717 17.6304 13.4492 17.7773 13.0943C17.9243 12.7395 18 12.3591 18 11.975V3.425C18 3.04088 17.9243 2.66053 17.7773 2.30565C17.6304 1.95077 17.4149 1.62832 17.1433 1.35671C16.8717 1.0851 16.5492 0.869648 16.1943 0.722653C15.8395 0.575658 15.4591 0.5 15.075 0.5H2.925ZM5.4 1.85V3.2H6.75V1.85H11.25V5.9H12.6V1.85H15.075C15.9444 1.85 16.65 2.5556 16.65 3.425V11.975C16.65 12.3927 16.4841 12.7933 16.1887 13.0887C15.8933 13.3841 15.4927 13.55 15.075 13.55H12.6V12.2H11.7C11.5443 12.2 11.394 12.1802 11.25 12.1433V13.55H6.75V6.8H5.4V13.55H2.925C2.50728 13.55 2.10668 13.3841 1.81131 13.0887C1.51594 12.7933 1.35 12.3927 1.35 11.975V3.425C1.35 2.5556 2.0556 1.85 2.925 1.85H5.4Z" fill="#54616C" />
</svg>
