<svg width="18" height="17" viewBox="0 0 18 17" fill="none" xmlns="http://www.w3.org/2000/svg">
  <path d="M16.8887 6.07617L16.3037 5.93262C16.2715 5.83008 16.2305 5.73047 16.1807 5.63379L16.4795 5.13574C16.5146 5.07715 16.5059 5.00391 16.459 4.95703L16.043 4.54102C15.9961 4.49414 15.9229 4.48535 15.8643 4.52051L15.3662 4.81934C15.2695 4.76953 15.1699 4.72852 15.0674 4.69629L14.9268 4.11133C14.9092 4.04687 14.8506 4 14.7832 4H14.1973C14.1299 4 14.0713 4.04687 14.0537 4.11133L13.9131 4.69629C13.8105 4.72852 13.7109 4.76953 13.6143 4.81934L13.1162 4.52051C13.0576 4.48535 12.9844 4.49414 12.9375 4.54102L12.5215 4.95703C12.4746 5.00391 12.4658 5.07715 12.501 5.13574L12.7998 5.63379C12.75 5.73047 12.709 5.83008 12.6768 5.93262L12.1113 6.07617C12.0469 6.09082 12 6.14941 12 6.2168V6.80273C12 6.87012 12.0469 6.92871 12.1113 6.94336L12.6768 7.08691C12.709 7.18945 12.75 7.28906 12.7998 7.38574L12.501 7.88379C12.4658 7.94238 12.4746 8.01562 12.5215 8.0625L12.9375 8.47852C12.9844 8.52539 13.0576 8.53418 13.1162 8.49902L13.6143 8.2002C13.7109 8.25 13.8105 8.29102 13.9131 8.32324L14.0537 8.88867C14.0713 8.95312 14.1299 9 14.1973 9H14.7832C14.8506 9 14.9092 8.95312 14.9268 8.88867L15.0674 8.32324C15.1699 8.29102 15.2695 8.25 15.3662 8.2002L15.8643 8.49902C15.9229 8.53418 15.9961 8.52539 16.043 8.47852L16.459 8.0625C16.5059 8.01562 16.5146 7.94238 16.4795 7.88379L16.1807 7.38574C16.2305 7.28906 16.2715 7.18945 16.3037 7.08691L16.8887 6.94336C16.9531 6.92871 17 6.87012 17 6.80273V6.2168C17 6.14941 16.9531 6.09082 16.8887 6.07617ZM14.4902 7.24219C14.0859 7.24219 13.7578 6.91406 13.7578 6.50977C13.7578 6.10547 14.0859 5.77734 14.4902 5.77734C14.8945 5.77734 15.2227 6.10547 15.2227 6.50977C15.2227 6.91406 14.8945 7.24219 14.4902 7.24219Z" fill="#B50156" />
  <path d="M6.98 1C4.78543 1 3 2.78543 3 4.98C3 7.17457 4.78543 8.96 6.98 8.96C9.17457 8.96 10.96 7.17457 10.96 4.98C10.96 2.78543 9.17457 1 6.98 1Z" fill="#54616C" />
  <path d="M12.1958 11.6189C11.1428 10.5498 9.74686 9.96094 8.26509 9.96094H6.55566C5.07392 9.96094 3.67794 10.5498 2.62493 11.6189C1.57708 12.6829 1 14.0873 1 15.5736C1 15.8096 1.19134 16.0009 1.42736 16.0009H13.3934C13.6294 16.0009 13.8208 15.8096 13.8208 15.5736C13.8208 14.0873 13.2437 12.6829 12.1958 11.6189Z" fill="#54616C" />
</svg>
