<svg width="16" height="12" viewBox="0 0 16 12" fill="none" xmlns="http://www.w3.org/2000/svg">
<path d="M13.25 0H2.75C2.15326 0 1.58097 0.237053 1.15901 0.65901C0.737053 1.08097 0.5 1.65326 0.5 2.25V9.75C0.5 10.3467 0.737053 10.919 1.15901 11.341C1.58097 11.7629 2.15326 12 2.75 12H13.25C13.8467 12 14.419 11.7629 14.841 11.341C15.2629 10.919 15.5 10.3467 15.5 9.75V2.25C15.5 1.65326 15.2629 1.08097 14.841 0.65901C14.419 0.237053 13.8467 0 13.25 0ZM2.75 1.5H13.25C13.4489 1.5 13.6397 1.57902 13.7803 1.71967C13.921 1.86032 14 2.05109 14 2.25L8 5.91L2 2.25C2 2.05109 2.07902 1.86032 2.21967 1.71967C2.36032 1.57902 2.55109 1.5 2.75 1.5ZM14 9.75C14 9.94891 13.921 10.1397 13.7803 10.2803C13.6397 10.421 13.4489 10.5 13.25 10.5H2.75C2.55109 10.5 2.36032 10.421 2.21967 10.2803C2.07902 10.1397 2 9.94891 2 9.75V3.96L7.61 7.3875C7.72401 7.45333 7.85335 7.48798 7.985 7.48798C8.11665 7.48798 8.24599 7.45333 8.36 7.3875L14 3.96V9.75Z" fill="#B50156"/>
</svg>
