<svg width="16" height="16" viewBox="0 0 16 16" fill="none" xmlns="http://www.w3.org/2000/svg">
<path d="M14.3525 5.74953C14.5008 5.74953 14.6458 5.70555 14.7692 5.62314C14.8925 5.54073 14.9886 5.42359 15.0454 5.28655C15.1022 5.1495 15.117 4.9987 15.0881 4.85322C15.0592 4.70773 14.9877 4.57409 14.8828 4.4692C14.7779 4.36432 14.6443 4.29288 14.4988 4.26395C14.3533 4.23501 14.2025 4.24986 14.0655 4.30662C13.9284 4.36339 13.8113 4.45952 13.7289 4.58286C13.6465 4.70619 13.6025 4.8512 13.6025 4.99953C13.6025 5.19845 13.6815 5.38921 13.8222 5.52986C13.9628 5.67052 14.1536 5.74953 14.3525 5.74953ZM12.1025 5.74953C12.2508 5.74953 12.3958 5.70555 12.5192 5.62314C12.6425 5.54073 12.7386 5.42359 12.7954 5.28655C12.8522 5.1495 12.867 4.9987 12.8381 4.85322C12.8092 4.70773 12.7377 4.57409 12.6328 4.4692C12.5279 4.36432 12.3943 4.29288 12.2488 4.26395C12.1033 4.23501 11.9525 4.24986 11.8155 4.30662C11.6784 4.36339 11.5613 4.45952 11.4789 4.58286C11.3965 4.70619 11.3525 4.8512 11.3525 4.99953C11.3525 5.19845 11.4315 5.38921 11.5722 5.52986C11.7128 5.67052 11.9036 5.74953 12.1025 5.74953ZM9.8525 5.74953C10.0008 5.74953 10.1458 5.70555 10.2692 5.62314C10.3925 5.54073 10.4886 5.42359 10.5454 5.28655C10.6022 5.1495 10.617 4.9987 10.5881 4.85322C10.5592 4.70773 10.4877 4.57409 10.3828 4.4692C10.2779 4.36432 10.1443 4.29288 9.99882 4.26395C9.85334 4.23501 9.70254 4.24986 9.56549 4.30662C9.42845 4.36339 9.31131 4.45952 9.2289 4.58286C9.14649 4.70619 9.1025 4.8512 9.1025 4.99953C9.1025 5.09803 9.1219 5.19555 9.15959 5.28655C9.19728 5.37754 9.25253 5.46022 9.32217 5.52986C9.39182 5.59951 9.4745 5.65475 9.56549 5.69244C9.65648 5.73014 9.75401 5.74953 9.8525 5.74953ZM13.1825 8.74953C13.0175 8.74953 12.845 8.69703 12.68 8.65954C12.3459 8.5859 12.0175 8.48815 11.6975 8.36703C11.3496 8.24046 10.9671 8.24703 10.6237 8.38549C10.2804 8.52395 10.0003 8.78451 9.8375 9.11703L9.6725 9.45453C8.94088 9.0464 8.26737 8.5419 7.67 7.95453C7.08551 7.35748 6.58127 6.68684 6.17 5.95953L6.5 5.74953C6.83253 5.58672 7.09309 5.30668 7.23155 4.9633C7.37001 4.61992 7.37658 4.23747 7.25 3.88953C7.13092 3.56885 7.03321 3.24063 6.9575 2.90703C6.92 2.73453 6.89 2.56954 6.8675 2.39704C6.77643 1.86875 6.49972 1.39034 6.08722 1.04796C5.67472 0.705587 5.15352 0.521741 4.6175 0.529535H2.3675C2.05044 0.52912 1.73687 0.595721 1.44734 0.724973C1.15782 0.854225 0.89888 1.04321 0.687503 1.27953C0.47277 1.52141 0.312708 1.80673 0.218226 2.11606C0.123744 2.42539 0.0970637 2.75146 0.140003 3.07203C0.535037 6.21232 1.96429 9.13172 4.2023 11.3697C6.44032 13.6078 9.35972 15.037 12.5 15.432C12.5974 15.4395 12.6951 15.4395 12.7925 15.432C13.3892 15.432 13.9615 15.195 14.3835 14.773C14.8055 14.3511 15.0425 13.7788 15.0425 13.182V10.932C15.0347 10.4087 14.8447 9.90445 14.5052 9.50609C14.1657 9.10774 13.698 8.8402 13.1825 8.74953ZM13.55 13.2495C13.5512 13.3583 13.5288 13.4659 13.4843 13.5651C13.4398 13.6643 13.3742 13.7526 13.2922 13.824C13.2101 13.8953 13.1136 13.948 13.0092 13.9783C12.9047 14.0086 12.795 14.0159 12.6875 13.9995C9.88712 13.6341 7.28533 12.3556 5.285 10.362C3.28625 8.34817 2.00994 5.72961 1.655 2.91453C1.63871 2.80454 1.64708 2.69229 1.67951 2.58592C1.71194 2.47956 1.76761 2.38173 1.8425 2.29954C1.91195 2.22047 1.99725 2.15691 2.09287 2.11298C2.18849 2.06905 2.29228 2.04573 2.3975 2.04453H4.6475C4.82191 2.04065 4.99222 2.09769 5.12911 2.20584C5.266 2.31398 5.36091 2.46646 5.3975 2.63703C5.4275 2.84203 5.465 3.04453 5.51 3.24453C5.59664 3.63989 5.71195 4.02842 5.855 4.40703L4.805 4.89454C4.71523 4.93573 4.63447 4.99424 4.56737 5.06673C4.50027 5.13922 4.44815 5.22425 4.41401 5.31693C4.37986 5.40962 4.36436 5.50813 4.36839 5.60683C4.37242 5.70552 4.39591 5.80244 4.4375 5.89203C5.5169 8.2041 7.37544 10.0626 9.6875 11.142C9.8701 11.217 10.0749 11.217 10.2575 11.142C10.4436 11.0728 10.5947 10.9325 10.6775 10.752L11.15 9.70204C11.5377 9.84069 11.9334 9.9559 12.335 10.047C12.53 10.092 12.74 10.1295 12.9425 10.1595C13.1117 10.1976 13.2624 10.2932 13.3691 10.4299C13.4758 10.5667 13.5317 10.7362 13.5275 10.9095L13.55 13.2495Z" fill="#B50156"/>
</svg>
