<svg width="18" height="18" viewBox="0 0 18 18" fill="none" xmlns="http://www.w3.org/2000/svg">
  <svg width="18" height="18" viewBox="0 0 18 18" fill="none" xmlns="http://www.w3.org/2000/svg">
<path d="M15.7781 0H8.99992C7.77275 0 6.77808 0.992889 6.77808 2.22185V12.389C6.77808 12.8204 7.27274 13.0726 7.62183 12.8109L9.74054 11.2218H15.7781C17.0052 11.2218 17.9999 10.229 17.9999 9V2.22185C17.9999 0.994675 17.007 0 15.7781 0V0ZM12.3889 8.68002C12.0979 8.68002 11.8616 8.44382 11.8616 8.15268C11.8616 7.86168 12.0979 7.62534 12.3889 7.62534C12.6801 7.62534 12.9163 7.86168 12.9163 8.15268C12.9163 8.44382 12.6801 8.68002 12.3889 8.68002ZM12.9163 6.3479V6.45818C12.9163 6.74945 12.6802 6.98552 12.3889 6.98552C12.0978 6.98552 11.8616 6.74945 11.8616 6.45818V5.89334C11.8616 5.60207 12.0978 5.366 12.3889 5.366C12.8769 5.366 13.2737 4.96912 13.2737 4.48119C13.2737 3.99339 12.8769 3.59651 12.3889 3.59651C11.8985 3.59651 11.5043 3.99312 11.5043 4.48064C11.5043 4.77191 11.2681 5.00839 10.9769 5.00839C10.6856 5.00839 10.4496 4.77246 10.4496 4.48132V4.48064C10.4496 3.4081 11.3178 2.54182 12.3884 2.54182C13.4585 2.54182 14.3284 3.4118 14.3284 4.48132C14.3284 5.36792 13.7304 6.1176 12.9163 6.3479Z" fill="#002E5A"/>
<path d="M5.84424 10.9656C5.84424 12.3423 4.72816 13.4584 3.35144 13.4584C1.97472 13.4584 0.858643 12.3423 0.858643 10.9656C0.858643 9.58873 1.97472 8.47266 3.35144 8.47266C4.72816 8.47266 5.84424 9.58873 5.84424 10.9656Z" fill="#002E5A"/>
<path d="M3.35152 13.458C1.5006 13.458 0 14.9586 0 16.8095V17.4727C0 17.764 0.236069 18 0.527344 18H6.17583C6.46696 18 6.70317 17.764 6.70317 17.4727V16.8095C6.70317 14.9586 5.20258 13.458 3.35152 13.458Z" fill="#002E5A"/>
</svg>

  <defs>
    <clipPath id="clip0">
      <rect width="18" height="18" fill="white" />
    </clipPath>
  </defs>
</svg>
