<svg width="16" height="13" viewBox="0 0 16 13" fill="none" xmlns="http://www.w3.org/2000/svg">
  <path d="M0.5 1.6875C0.5 1.43886 0.598772 1.2004 0.774587 1.02459C0.950403 0.848772 1.18886 0.75 1.4375 0.75H10.8125C11.0611 0.75 11.2996 0.848772 11.4754 1.02459C11.6512 1.2004 11.75 1.43886 11.75 1.6875C11.75 1.93614 11.6512 2.1746 11.4754 2.35041C11.2996 2.52623 11.0611 2.625 10.8125 2.625H1.4375C1.18886 2.625 0.950403 2.52623 0.774587 2.35041C0.598772 2.1746 0.5 1.93614 0.5 1.6875ZM0.5 11.6875C0.5 11.4389 0.598772 11.2004 0.774587 11.0246C0.950403 10.8488 1.18886 10.75 1.4375 10.75H9.5625C9.81114 10.75 10.0496 10.8488 10.2254 11.0246C10.4012 11.2004 10.5 11.4389 10.5 11.6875C10.5 11.9361 10.4012 12.1746 10.2254 12.3504C10.0496 12.5262 9.81114 12.625 9.5625 12.625H1.4375C1.18886 12.625 0.950403 12.5262 0.774587 12.3504C0.598772 12.1746 0.5 11.9361 0.5 11.6875ZM1.4375 5.75C1.18886 5.75 0.950403 5.84877 0.774587 6.02459C0.598772 6.2004 0.5 6.43886 0.5 6.6875C0.5 6.93614 0.598772 7.1746 0.774587 7.35041C0.950403 7.52623 1.18886 7.625 1.4375 7.625H14.5625C14.8111 7.625 15.0496 7.52623 15.2254 7.35041C15.4012 7.1746 15.5 6.93614 15.5 6.6875C15.5 6.43886 15.4012 6.2004 15.2254 6.02459C15.0496 5.84877 14.8111 5.75 14.5625 5.75H1.4375Z" fill="#002E5A" />
</svg>
