<svg width="50" height="50" viewBox="0 0 50 50" fill="none" xmlns="http://www.w3.org/2000/svg">
  <circle cx="25" cy="25" r="25" fill="#D5EBD5" />
  <path d="M14.8679 19.2706C14.9573 18.7641 15.0369 18.2576 15.1376 17.7512C15.5926 15.4567 15.0564 15.8158 17.5502 15.7671C18.1076 15.7562 18.2658 15.9675 18.159 16.5184C17.8801 17.957 17.665 19.3973 17.385 20.836C16.9468 23.0828 17.5161 22.7372 14.9486 22.7779C14.4308 22.786 14.2672 22.5818 14.3701 22.0688C14.5564 21.1366 14.7054 20.2033 14.8679 19.2706ZM26.2884 17.9424C25.5393 17.9424 24.7934 17.9196 24.0399 17.9516C23.6483 17.9684 23.0335 17.7436 22.9138 18.3232C22.7795 18.9743 23.4972 18.7814 23.905 18.7879C25.425 18.8139 26.9535 18.7939 28.4767 18.8047C28.8093 18.8074 29.2719 18.7424 29.1998 19.2413C29.1262 19.7499 28.6928 19.6963 28.3505 19.7039C27.8673 19.7142 27.375 19.7494 26.9075 19.699C25.8691 19.588 24.957 19.8848 24.0735 20.6756C23.3173 21.3522 22.4258 21.7703 21.4594 21.7888C20.5738 21.8061 19.6952 21.7758 18.8085 21.8045C18.2408 21.8224 18.0886 21.5743 18.1937 21.038C18.3865 20.0484 18.568 19.0577 18.7148 18.0686C18.7982 17.5047 19.1102 17.1878 19.6324 16.9436C21.3294 16.1495 23.0573 15.5087 24.8324 15.1783C26.1042 14.9416 27.4259 14.6821 28.513 15.2763C30.827 16.5411 33.1042 17.8606 35.3922 19.1639C35.5536 19.2559 35.8407 19.2944 35.7681 19.5544C35.7004 19.7981 35.4193 19.8241 35.2085 19.8859C34.0483 20.2261 33.0928 19.9466 32.2061 19.4287C30.456 18.4071 28.6658 17.4684 26.2884 17.9424ZM14.0061 19.2771C13.8024 20.4276 13.6128 21.5775 13.3918 22.7275C13.2689 23.3688 13.4839 23.6618 14.1399 23.6434C14.9188 23.6212 15.6928 23.6358 16.4674 23.6413C17.0378 23.6451 17.5957 23.6965 17.9202 22.9349C18.0534 22.6224 18.3963 22.6684 18.6601 22.6657C19.3838 22.6587 20.1042 22.6695 20.8278 22.6587C22.0758 22.6397 23.2843 22.3266 24.3357 21.4123C25.1276 20.7244 25.9417 20.4617 26.8658 20.557C27.3338 20.6052 27.8262 20.5684 28.3088 20.5597C28.9079 20.5494 29.4723 20.3669 29.8439 19.7981C30.1223 19.3724 30.3449 19.4455 30.645 19.6086C31.2132 19.9173 31.7939 20.2082 32.3805 20.4888C33.401 20.9773 34.5233 20.9876 35.722 20.5462C36.1928 20.3728 36.6185 20.0885 36.7328 19.5679C36.8417 19.0712 36.527 18.8112 36.1689 18.607C33.7525 17.2263 31.3519 15.825 28.9133 14.4801C27.7606 13.8441 26.3648 14.0819 25.0035 14.3257C23.2556 14.6388 21.5466 15.2346 19.8707 15.9913C19.3897 16.2085 18.9959 16.39 19.1297 15.6289C19.2261 15.0813 18.9022 14.9053 18.4012 14.9091C17.4635 14.9166 16.527 14.9183 15.5926 14.9085C15.0168 14.9026 14.7222 15.1853 14.6268 15.7465C14.427 16.923 14.2141 18.1 14.0061 19.2771Z" fill="#5CB85C" />
  <path d="M22.4572 26.1279C22.6961 24.7125 23.8731 23.6698 25.2571 23.6487C26.6573 23.627 27.6003 24.7033 27.3788 26.07C27.1583 27.4306 25.8399 28.5475 24.4511 28.5492C23.0617 28.5508 22.221 27.5303 22.4572 26.1279ZM28.1799 26.1095C28.506 24.2998 27.2455 22.769 25.4423 22.7853C23.6532 22.8015 21.9291 24.2873 21.6079 26.09C21.2861 27.8959 22.4708 29.3822 24.2555 29.412C26.0468 29.4424 27.8528 27.9225 28.1799 26.1095Z" fill="#5CB85C" />
  <path d="M31.0141 33.0286C30.7525 34.4711 29.5413 35.4764 28.0902 35.4558C26.7544 35.4369 25.8639 34.3264 26.1104 32.9869C26.3612 31.6224 27.6845 30.5364 29.0766 30.5537C30.4421 30.5705 31.2687 31.6268 31.0141 33.0286ZM31.877 33.014C32.1987 31.2059 30.9312 29.6725 29.1329 29.6936C27.3844 29.7142 25.5769 31.2655 25.2719 33.0075C24.9577 34.8015 26.2371 36.3333 28.0376 36.3198C29.8078 36.3068 31.5595 34.7982 31.877 33.014Z" fill="#5CB85C" />
</svg>
