<svg width="50" height="50" viewBox="0 0 50 50" fill="none" xmlns="http://www.w3.org/2000/svg">
<circle r="25" transform="matrix(1 0 0 -1 25 25)" fill="#F6D5D5"/>
<path d="M14.8679 30.7294C14.9573 31.2359 15.0369 31.7424 15.1376 32.2488C15.5926 34.5433 15.0564 34.1842 17.5502 34.2329C18.1076 34.2438 18.2658 34.0325 18.159 33.4816C17.8801 32.043 17.665 30.6027 17.385 29.164C16.9468 26.9172 17.5161 27.2628 14.9486 27.2221C14.4308 27.214 14.2672 27.4182 14.3701 27.9312C14.5564 28.8634 14.7054 29.7967 14.8679 30.7294ZM26.2884 32.0576C25.5393 32.0576 24.7934 32.0804 24.0399 32.0484C23.6483 32.0316 23.0335 32.2564 22.9138 31.6768C22.7795 31.0257 23.4972 31.2186 23.905 31.2121C25.425 31.1861 26.9535 31.2061 28.4767 31.1953C28.8093 31.1926 29.2719 31.2576 29.1998 30.7587C29.1262 30.2501 28.6928 30.3037 28.3505 30.2961C27.8673 30.2858 27.375 30.2506 26.9075 30.301C25.8691 30.412 24.957 30.1152 24.0735 29.3244C23.3173 28.6478 22.4258 28.2297 21.4594 28.2112C20.5738 28.1939 19.6952 28.2242 18.8085 28.1955C18.2408 28.1776 18.0886 28.4257 18.1937 28.962C18.3865 29.9516 18.568 30.9423 18.7148 31.9314C18.7982 32.4953 19.1102 32.8122 19.6324 33.0564C21.3294 33.8505 23.0573 34.4913 24.8324 34.8217C26.1042 35.0584 27.4259 35.3179 28.513 34.7237C30.827 33.4589 33.1042 32.1394 35.3922 30.8361C35.5536 30.7441 35.8407 30.7056 35.7681 30.4456C35.7004 30.2019 35.4193 30.1759 35.2085 30.1141C34.0483 29.7739 33.0928 30.0534 32.2061 30.5713C30.456 31.5929 28.6658 32.5316 26.2884 32.0576ZM14.0061 30.7229C13.8024 29.5724 13.6128 28.4225 13.3918 27.2725C13.2689 26.6312 13.4839 26.3382 14.1399 26.3566C14.9188 26.3788 15.6928 26.3642 16.4674 26.3587C17.0378 26.3549 17.5957 26.3035 17.9202 27.0651C18.0534 27.3776 18.3963 27.3316 18.6601 27.3343C19.3838 27.3413 20.1042 27.3305 20.8278 27.3413C22.0758 27.3603 23.2843 27.6734 24.3357 28.5877C25.1276 29.2756 25.9417 29.5383 26.8658 29.443C27.3338 29.3948 27.8262 29.4316 28.3088 29.4403C28.9079 29.4506 29.4723 29.6331 29.8439 30.2019C30.1223 30.6276 30.3449 30.5545 30.645 30.3914C31.2132 30.0827 31.7939 29.7918 32.3805 29.5112C33.401 29.0227 34.5233 29.0124 35.722 29.4538C36.1928 29.6272 36.6185 29.9115 36.7328 30.4321C36.8417 30.9288 36.527 31.1888 36.1689 31.393C33.7525 32.7737 31.3519 34.175 28.9133 35.5199C27.7606 36.1559 26.3648 35.9181 25.0035 35.6743C23.2556 35.3612 21.5466 34.7654 19.8707 34.0087C19.3897 33.7915 18.9959 33.61 19.1297 34.3711C19.2261 34.9187 18.9022 35.0947 18.4012 35.0909C17.4635 35.0834 16.527 35.0817 15.5926 35.0915C15.0168 35.0974 14.7222 34.8147 14.6268 34.2535C14.427 33.077 14.2141 31.9 14.0061 30.7229Z" fill="#D9534F"/>
<path d="M22.4572 23.8721C22.6961 25.2875 23.8731 26.3302 25.2571 26.3513C26.6573 26.373 27.6003 25.2967 27.3788 23.93C27.1583 22.5694 25.8399 21.4525 24.4511 21.4508C23.0617 21.4492 22.221 22.4697 22.4572 23.8721ZM28.1799 23.8905C28.506 25.7002 27.2455 27.231 25.4423 27.2147C23.6532 27.1985 21.9291 25.7127 21.6079 23.91C21.2861 22.1041 22.4708 20.6178 24.2555 20.588C26.0468 20.5576 27.8528 22.0775 28.1799 23.8905Z" fill="#D9534F"/>
<path d="M31.0141 16.9714C30.7525 15.5289 29.5413 14.5236 28.0902 14.5442C26.7544 14.5631 25.8639 15.6736 26.1104 17.0131C26.3612 18.3776 27.6845 19.4636 29.0766 19.4463C30.4421 19.4295 31.2687 18.3732 31.0141 16.9714ZM31.877 16.986C32.1987 18.7941 30.9312 20.3275 29.1329 20.3064C27.3844 20.2858 25.5769 18.7345 25.2719 16.9925C24.9577 15.1985 26.2371 13.6667 28.0376 13.6802C29.8078 13.6932 31.5595 15.2018 31.877 16.986Z" fill="#D9534F"/>
</svg>
