<svg width="24" height="24" viewBox="0 0 24 24" fill="none" xmlns="http://www.w3.org/2000/svg">
  <path fill-rule="evenodd" clip-rule="evenodd" d="M11.8011 10.0008C12.226 10.0008 12.5704 10.359 12.5704 10.8008C12.5704 11.0217 12.7427 11.2008 12.9551 11.2008C13.1675 11.2008 13.3398 11.0217 13.3398 10.8008C13.3372 10.0734 12.863 9.43942 12.1857 9.25758V9.20077C12.1857 8.97987 12.0135 8.80078 11.8011 8.80078C11.5886 8.80078 11.4164 8.97987 11.4164 9.20077V9.25758C10.667 9.45816 10.1781 10.2073 10.2758 11.0055C10.3735 11.8038 11.0272 12.4018 11.8011 12.4008C12.226 12.4008 12.5704 12.7589 12.5704 13.2008C12.5704 13.6426 12.226 14.0008 11.8011 14.0008C11.3762 14.0008 11.0317 13.6426 11.0317 13.2008C11.0317 12.9799 10.8595 12.8008 10.6471 12.8008C10.4346 12.8008 10.2624 12.9799 10.2624 13.2008C10.265 13.9282 10.7391 14.5621 11.4164 14.744V14.8008C11.4164 15.0217 11.5886 15.2008 11.8011 15.2008C12.0135 15.2008 12.1857 15.0217 12.1857 14.8008V14.744C12.9352 14.5434 13.424 13.7943 13.3263 12.996C13.2287 12.1977 12.575 11.5998 11.8011 11.6008C11.3762 11.6008 11.0317 11.2426 11.0317 10.8008C11.0318 10.359 11.3762 10.0008 11.8011 10.0008Z" fill="#8E9AA4" />
  <path d="M21.2349 13.4472C21.0109 13.2087 20.6701 13.1356 20.3736 13.2624C20.0734 13.3903 19.8778 13.6947 19.8793 14.0321V14.4001H18.7253V1.60002C18.7253 0.716352 18.0364 0 17.1866 0H6.4156C5.56578 0 4.87687 0.716352 4.87687 1.60002V6.40004H3.72284V6.03203C3.72443 5.69491 3.52918 5.39047 3.22929 5.26241C2.93318 5.13584 2.59281 5.20863 2.36875 5.44642L0.488483 7.41642C0.185674 7.74307 0.187037 8.26073 0.49155 8.58563L2.368 10.5528C2.59217 10.7909 2.93276 10.864 3.22929 10.7376C3.52918 10.6096 3.72443 10.3051 3.72284 9.96803V9.60001H4.87687V22.4C4.87687 23.2837 5.56578 24 6.4156 24H17.1866C18.0364 24 18.7253 23.2836 18.7253 22.4V17.6H19.8793V17.9681C19.8779 18.188 19.9609 18.3995 20.1098 18.5556C20.2588 18.7118 20.4614 18.7997 20.6729 18.8C20.8841 18.7997 21.0863 18.7113 21.2342 18.5544L23.1137 16.5844C23.4167 16.258 23.4157 15.7404 23.1114 15.4152L21.2349 13.4472ZM14.7597 0.80001L14.2661 1.3472C14.1208 1.50837 13.9177 1.5999 13.7052 1.59998H9.89691C9.68433 1.59971 9.48128 1.50825 9.33567 1.3472L8.8425 0.80001H14.7597ZM5.64623 1.60002C5.64623 1.15819 5.99069 0.80001 6.4156 0.80001H7.78774L8.77442 1.89403C9.06553 2.21634 9.47166 2.3994 9.89691 2.40003H13.7052C14.1305 2.39964 14.5367 2.21653 14.8277 1.89403L15.8144 0.80001H17.1866C17.6115 0.80001 17.9559 1.15819 17.9559 1.60002V14.4H16.6596C17.4579 12.6668 17.3434 10.6286 16.3566 9.00377C15.3699 7.37891 13.6492 6.39548 11.8011 6.40004H5.64623V1.60002ZM16.4172 12C16.4172 14.651 14.3505 16.8 11.8011 16.8C9.25162 16.8 7.18492 14.651 7.18492 12C7.18492 9.34899 9.25162 7.19998 11.8011 7.19998C14.3494 7.20289 16.4145 9.35021 16.4172 12ZM3.33817 8.8C3.12574 8.8 2.95351 8.97908 2.95351 9.19998V9.96799L2.91504 9.99039L1.03898 8.02439C1.02747 8.01136 1.02667 7.9916 1.03705 7.97759L2.91504 6.00959L2.95351 6.03199V6.79999C2.95351 7.02089 3.12574 7.19998 3.33817 7.19998H9.04142C8.38817 7.60669 7.82458 8.15183 7.38729 8.8H3.33817ZM17.9559 22.4C17.9559 22.8419 17.6115 23.2 17.1866 23.2H6.4156C5.99069 23.2 5.64623 22.8419 5.64623 22.4V21.7776C5.87911 21.9216 6.14467 21.9983 6.4156 22H17.1866C17.4575 21.9983 17.7231 21.9216 17.956 21.7776V22.4H17.9559ZM17.9559 20.4C17.9559 20.8418 17.6115 21.2 17.1866 21.2H6.4156C5.99069 21.2 5.64623 20.8418 5.64623 20.4V9.60001H6.94258C6.14429 11.3332 6.2587 13.3714 7.2455 14.9963C8.2323 16.6211 9.95295 17.6046 11.8011 17.6H17.9559V20.4ZM20.6871 17.9904L20.6487 17.968V17.2C20.6487 16.9791 20.4764 16.8 20.264 16.8H14.5608C15.214 16.3933 15.7776 15.8482 16.2149 15.2H20.264C20.4764 15.2 20.6487 15.0209 20.6487 14.8V14.032L20.6871 14.0096L22.5621 15.9756C22.5736 15.9886 22.5744 16.0084 22.564 16.0224L20.6871 17.9904Z" fill="#8E9AA4" />
</svg>
