<svg width="24" height="24" viewBox="0 0 24 24" fill="none" xmlns="http://www.w3.org/2000/svg">
  <path d="M21.5 4H2.49998C1.122 4 0 5.122 0 6.50003V17.5C0 18.878 1.122 20 2.49998 20H21.5C22.878 20 24 18.878 24 17.5V6.50003C24 5.122 22.878 4 21.5 4ZM23 17.5C23 18.327 22.327 19 21.5 19H2.49998C1.67297 19 0.999984 18.327 0.999984 17.5V6.50003C0.999984 5.67302 1.67297 5.00003 2.49998 5.00003H21.5C22.327 5.00003 23 5.67302 23 6.50003V17.5H23Z" fill="#8E9AA4" />
  <path d="M23.5 7H0.500016C0.224016 7 0 7.22402 0 7.50002V10.5C0 10.776 0.224016 11 0.500016 11H23.5C23.776 11 24 10.776 24 10.5V7.50002C24 7.22402 23.776 7 23.5 7ZM23 10H0.999984V7.99998H23V10H23Z" fill="#8E9AA4" />
  <path d="M9.50002 14H3.50002C3.22402 14 3 14.224 3 14.5C3 14.776 3.22402 15 3.50002 15H9.50002C9.77602 15 10 14.776 10 14.5C10 14.224 9.77602 14 9.50002 14Z" fill="#8E9AA4" />
  <path d="M9.50002 16H3.50002C3.22402 16 3 16.224 3 16.5C3 16.776 3.22402 17 3.50002 17H9.50002C9.77602 17 10 16.776 10 16.5C9.99998 16.224 9.77602 16 9.50002 16Z" fill="#8E9AA4" />
  <path d="M19.5 13H18.5C17.673 13 17 13.673 17 14.5V15.5C17 16.327 17.673 17 18.5 17H19.5C20.327 17 21 16.327 21 15.5V14.5C21 13.673 20.327 13 19.5 13ZM20 15.5C20 15.776 19.776 16 19.5 16H18.5C18.224 16 18 15.776 18 15.5V14.5C18 14.224 18.224 14 18.5 14H19.5C19.776 14 20 14.224 20 14.5V15.5Z" fill="#8E9AA4" />
</svg>
