<svg width="26" height="26" viewBox="0 0 26 26" fill="none" xmlns="http://www.w3.org/2000/svg">
    <path d="M7.11974 11.8601C7.11974 15.2757 9.88849 18.0444 13.304 18.0444C16.7196 18.0444 19.4883 15.2757 19.4883 11.8601C19.4883 8.44454 16.7196 5.67578 13.304 5.67578C9.89016 5.67953 7.1237 8.44621 7.11974 11.8601ZM13.304 6.52873C16.2485 6.52873 18.6354 8.91558 18.6354 11.8601C18.6354 14.8046 16.2485 17.1915 13.304 17.1915C10.3595 17.1915 7.97269 14.8046 7.97269 11.8601C7.97602 8.91704 10.361 6.53206 13.304 6.52873Z" fill="#8E9AA4" />
    <path d="M21.5906 19.0976L18.2498 20.6761C17.7885 19.8181 16.9037 19.2721 15.93 19.2446L12.846 19.1599C12.3576 19.1459 11.8785 19.0222 11.4443 18.798L11.1305 18.6353C9.52371 17.7978 7.60853 17.7999 6.00342 18.6408L6.02299 17.9298C6.02945 17.6943 5.84391 17.4981 5.60839 17.4917L2.22657 17.3986C1.99105 17.3921 1.7951 17.5777 1.78864 17.8132L1.58436 25.2345C1.57791 25.47 1.76345 25.6661 1.99897 25.6726L5.38078 25.7657H5.39244C5.62359 25.7657 5.81267 25.5818 5.81892 25.3509L5.8287 24.9958L6.70727 24.5254C7.05211 24.3399 7.45527 24.2957 7.83197 24.4023L13.0784 25.8748C13.0875 25.8775 13.0967 25.8796 13.1061 25.8817C13.4853 25.961 13.8718 26.0008 14.2591 26.0006C15.0795 26.001 15.8904 25.8242 16.6361 25.4818C16.6545 25.4735 16.6722 25.4637 16.689 25.4527L24.2958 20.5324C24.4853 20.4097 24.5465 20.1609 24.4356 19.9643C23.8708 18.9623 22.6182 18.5806 21.5906 19.0976ZM2.44876 24.8317L2.62952 18.263L5.15859 18.3326L4.97784 24.9015L2.44876 24.8317ZM16.2519 24.7201C15.3255 25.1382 14.2907 25.2536 13.2949 25.0502L8.0627 23.5814C7.4738 23.4151 6.84346 23.484 6.30474 23.7737L5.85578 24.0142L5.97593 19.6468C7.39862 18.7005 9.22322 18.6033 10.7384 19.3927L11.0522 19.5553C11.6007 19.8385 12.2056 19.9947 12.8226 20.0126L15.9069 20.0974C16.7732 20.1224 17.5089 20.7392 17.6846 21.588L13.0907 21.4611C12.8551 21.4547 12.6592 21.6404 12.6525 21.8758C12.6461 22.1113 12.8318 22.3074 13.0671 22.3139L18.1369 22.4534H18.1488C18.3797 22.4532 18.5686 22.2693 18.5749 22.0386C18.5801 21.8533 18.5663 21.6677 18.5336 21.4853L21.9602 19.8662C21.9635 19.8648 21.9669 19.8631 21.9702 19.8615C22.4562 19.6155 23.0439 19.6978 23.4437 20.0678L16.2519 24.7201Z" fill="#8E9AA4" />
    <path d="M13.7305 4.47799V0.426475C13.7305 0.190956 13.5395 0 13.304 0C13.0685 0 12.8775 0.190956 12.8775 0.426475V4.47799C12.8775 4.71351 13.0685 4.90446 13.304 4.90446C13.5395 4.90446 13.7305 4.71351 13.7305 4.47799Z" fill="#8E9AA4" />
    <path d="M13.7305 13.978V9.92648C13.7305 9.69096 13.5396 9.5 13.304 9.5C13.0685 9.5 12.8776 9.69096 12.8776 9.92648V13.978C12.8776 14.2135 13.0685 14.4045 13.304 14.4045C13.5396 14.4045 13.7305 14.2135 13.7305 13.978Z" fill="#8E9AA4" />
    <path d="M15.33 11.4478H11.2785C11.043 11.4478 10.8521 11.6388 10.8521 11.8743C10.8521 12.1098 11.043 12.3008 11.2785 12.3008H15.33C15.5656 12.3008 15.7565 12.1098 15.7565 11.8743C15.7565 11.6388 15.5656 11.4478 15.33 11.4478Z" fill="#8E9AA4" />
    <path d="M16.9289 4.47843V2.55929C16.9289 2.32377 16.738 2.13281 16.5024 2.13281C16.2669 2.13281 16.076 2.32377 16.076 2.55929V4.47843C16.076 4.71394 16.2669 4.9049 16.5024 4.9049C16.738 4.9049 16.9289 4.71394 16.9289 4.47843Z" fill="#8E9AA4" />
    <path d="M10.532 4.47843V2.55929C10.532 2.32377 10.3411 2.13281 10.1055 2.13281C9.87001 2.13281 9.67905 2.32377 9.67905 2.55929V4.47843C9.67905 4.71394 9.87001 4.9049 10.1055 4.9049C10.3411 4.9049 10.532 4.71394 10.532 4.47843Z" fill="#8E9AA4" />
</svg>
