<svg width="18" height="18" viewBox="0 0 18 18" fill="none" xmlns="http://www.w3.org/2000/svg">
<path d="M9.00022 0.111328C7.24217 0.111328 5.52359 0.632652 4.06182 1.60938C2.60005 2.5861 1.46074 3.97435 0.787959 5.59859C0.11518 7.22282 -0.0608501 9.01008 0.28213 10.7344C0.625109 12.4586 1.47169 14.0425 2.71483 15.2856C3.95796 16.5287 5.54181 17.3753 7.26609 17.7183C8.99036 18.0613 10.7776 17.8853 12.4019 17.2125C14.0261 16.5397 15.4143 15.4004 16.3911 13.9386C17.3678 12.4768 17.8891 10.7583 17.8891 9.00022C17.8891 6.64274 16.9526 4.38181 15.2856 2.71482C13.6186 1.04783 11.3577 0.111328 9.00022 0.111328ZM14.8058 6.01688L7.50578 13.3113L3.19467 9.00022C3.04732 8.85287 2.96455 8.65304 2.96455 8.44466C2.96455 8.23629 3.04732 8.03645 3.19467 7.88911C3.34201 7.74176 3.54185 7.65899 3.75022 7.65899C3.9586 7.65899 4.15843 7.74176 4.30578 7.88911L7.51689 11.1002L13.7058 4.91688C13.7787 4.84393 13.8653 4.78605 13.9607 4.74657C14.056 4.70709 14.1582 4.68676 14.2613 4.68676C14.3645 4.68676 14.4667 4.70709 14.562 4.74657C14.6573 4.78605 14.7439 4.84393 14.8169 4.91688C14.8898 4.98984 14.9477 5.07645 14.9872 5.17177C15.0267 5.2671 15.047 5.36926 15.047 5.47244C15.047 5.57561 15.0267 5.67778 14.9872 5.7731C14.9477 5.86843 14.8898 5.95504 14.8169 6.02799L14.8058 6.01688Z" fill="#5CB85C"/>
</svg>
