<svg width="80" height="80" viewBox="0 0 80 80" fill="none" xmlns="http://www.w3.org/2000/svg">
  <g clip-path="url(#clip0)">
    <path d="M75.1147 17.667H20.7324C19.1646 17.667 17.7677 18.4103 16.873 19.5618L43.6715 39.2264C46.175 41.0635 49.6717 41.0635 52.1753 39.2264L78.9741 19.562C78.0796 18.4101 76.6825 17.667 75.1147 17.667Z" fill="white" />
    <path d="M54.2856 42.1045C52.4127 43.4787 50.1673 44.1663 47.9228 44.1663C45.6777 44.1663 43.4333 43.4792 41.56 42.1045L15.8459 23.2355V48.5982H12.2776H10.2718C8.79383 48.5982 7.5957 49.7965 7.5957 51.2743C7.5957 52.7523 8.79399 53.9504 10.2718 53.9504H12.2779H15.8459V57.4464C15.8459 60.1406 18.0376 62.3323 20.7318 62.3323H75.114C77.8082 62.3323 79.9999 60.1403 79.9999 57.4464V23.2354L54.2856 42.1045Z" fill="white" />
    <path d="M12.2777 39.3023C11.7872 38.7462 11.0714 38.3936 10.2716 38.3936H2.6761C1.19828 38.3936 0 39.5918 0 41.0696C0 42.5476 1.19828 43.7457 2.6761 43.7457H10.2719C11.0717 43.7457 11.7875 43.3931 12.278 42.837C12.6939 42.3653 12.9481 41.7479 12.9481 41.0696C12.948 40.3914 12.6936 39.774 12.2777 39.3023Z" fill="white" />
  </g>
  <defs>
    <clipPath id="clip0">
      <rect width="80" height="80" fill="white" />
    </clipPath>
  </defs>
</svg>
