<svg width="32" height="32" viewBox="0 0 32 32" fill="none" xmlns="http://www.w3.org/2000/svg">
  <path d="M22.7074 9.29301C22.5761 9.16168 22.4109 9.06948 22.2302 9.02674C22.0495 8.98399 21.8605 8.9924 21.6844 9.05101L12.6844 12.051C12.537 12.1001 12.403 12.1829 12.2932 12.2928C12.1833 12.4027 12.1005 12.5366 12.0514 12.684L9.05136 21.684C8.9926 21.8602 8.98407 22.0493 9.02674 22.2301C9.0694 22.4108 9.16156 22.5761 9.29289 22.7075C9.42423 22.8388 9.58955 22.931 9.77032 22.9736C9.95109 23.0163 10.1402 23.0078 10.3164 22.949L19.3164 19.949C19.4638 19.8999 19.5977 19.8171 19.7076 19.7072C19.8174 19.5973 19.9002 19.4634 19.9494 19.316L22.9494 10.316C23.008 10.1398 23.0164 9.95082 22.9736 9.77014C22.9309 9.58946 22.8387 9.42425 22.7074 9.29301ZM11.5814 20.42L13.7914 13.792L18.2104 18.211L11.5814 20.42Z" fill="#002E5A" />
  <path d="M16 30C13.2311 30 10.5243 29.1789 8.22202 27.6406C5.91973 26.1022 4.12532 23.9157 3.06569 21.3576C2.00607 18.7994 1.72882 15.9845 2.26901 13.2687C2.80921 10.553 4.14258 8.05845 6.10051 6.10051C8.05845 4.14258 10.553 2.80921 13.2687 2.26901C15.9845 1.72882 18.7994 2.00607 21.3576 3.06569C23.9157 4.12532 26.1022 5.91973 27.6406 8.22202C29.1789 10.5243 30 13.2311 30 16C29.9958 19.7117 28.5194 23.2702 25.8948 25.8948C23.2702 28.5194 19.7117 29.9958 16 30ZM16 4.00001C13.6266 4.00001 11.3066 4.70379 9.33316 6.02237C7.35977 7.34095 5.8217 9.21509 4.91345 11.4078C4.0052 13.6005 3.76756 16.0133 4.23058 18.3411C4.69361 20.6689 5.83649 22.8071 7.51472 24.4853C9.19296 26.1635 11.3312 27.3064 13.6589 27.7694C15.9867 28.2325 18.3995 27.9948 20.5922 27.0866C22.7849 26.1783 24.6591 24.6402 25.9776 22.6668C27.2962 20.6935 28 18.3734 28 16C27.9963 12.8185 26.7308 9.76845 24.4812 7.51882C22.2316 5.26918 19.1815 4.00371 16 4.00001Z" fill="#002E5A" />
</svg>
