<svg width="14" height="14" viewBox="0 0 14 14" fill="none" xmlns="http://www.w3.org/2000/svg">
<path d="M4.38192 7.12948L1.80792 4.55548C0.794585 5.66014 0.410585 6.76681 0.403919 6.78948L0.333252 7.00014L0.403252 7.21081C0.417919 7.25548 1.94725 11.6668 7.03592 11.6668C7.65525 11.6668 8.21925 11.5988 8.73725 11.4848L6.90659 9.65414C6.24744 9.62183 5.62389 9.34547 5.15724 8.87882C4.6906 8.41217 4.41423 7.78862 4.38192 7.12948ZM7.03592 2.33348C5.79925 2.33348 4.78592 2.60281 3.94125 2.99881L1.47125 0.528809L0.528585 1.47148L12.5286 13.4715L13.4713 12.5288L11.2726 10.3301C13.0313 9.02814 13.6586 7.23881 13.6679 7.21081L13.7379 7.00014L13.6679 6.78948C13.6533 6.74481 12.1246 2.33348 7.03592 2.33348ZM8.30659 7.36414C8.43125 6.91281 8.32525 6.40481 7.97859 6.05748C7.63192 5.71014 7.12325 5.60481 6.67192 5.72948L5.66659 4.72414C6.07856 4.4708 6.55228 4.33565 7.03592 4.33348C8.50659 4.33348 9.70259 5.52948 9.70259 7.00014C9.70061 7.48369 9.56519 7.9573 9.31125 8.36881L8.30659 7.36414Z" fill="#D2D7DB"/>
</svg>
