<svg width="35" height="35" viewBox="0 0 35 35" fill="none" xmlns="http://www.w3.org/2000/svg">
  <rect width="34.2657" height="34.9461" rx="17.1329" transform="matrix(-1 0 0 1 34.5315 0)" fill="#D4D9DC" />
  <path d="M14.4809 12.2142C14.5486 12.1463 14.6291 12.0924 14.7177 12.0557C14.8063 12.0189 14.9012 12 14.9972 12C15.0931 12 15.188 12.0189 15.2766 12.0557C15.3652 12.0924 15.4457 12.1463 15.5134 12.2142L20.3609 17.0617C20.415 17.1157 20.4579 17.1798 20.4872 17.2504C20.5164 17.3209 20.5315 17.3966 20.5315 17.473C20.5315 17.5494 20.5164 17.625 20.4872 17.6956C20.4579 17.7662 20.415 17.8303 20.3609 17.8842L15.5134 22.7317C15.2276 23.0176 14.7667 23.0176 14.4809 22.7317C14.1951 22.4459 14.1951 21.9851 14.4809 21.6992L18.7042 17.4701L14.4751 13.2409C14.1951 12.9609 14.1951 12.4942 14.4809 12.2142Z" fill="white" />
</svg>
