<svg width="35" height="35" viewBox="0 0 35 35" fill="none" xmlns="http://www.w3.org/2000/svg">
  <rect width="34.2657" height="34.9461" rx="17.1329" fill="#3C557E" />
  <path d="M20.0506 12.2142C19.9829 12.1463 19.9024 12.0924 19.8138 12.0557C19.7252 12.0189 19.6303 12 19.5343 12C19.4384 12 19.3435 12.0189 19.2549 12.0557C19.1663 12.0924 19.0858 12.1463 19.0181 12.2142L14.1706 17.0617C14.1165 17.1157 14.0736 17.1798 14.0443 17.2504C14.0151 17.3209 14 17.3966 14 17.473C14 17.5494 14.0151 17.625 14.0443 17.6956C14.0736 17.7662 14.1165 17.8303 14.1706 17.8842L19.0181 22.7317C19.3039 23.0176 19.7648 23.0176 20.0506 22.7317C20.3364 22.4459 20.3364 21.9851 20.0506 21.6992L15.8273 17.4701L20.0564 13.2409C20.3364 12.9609 20.3364 12.4942 20.0506 12.2142Z" fill="white" />
</svg>
