<svg width="18" height="18" viewBox="0 0 18 18" fill="none" xmlns="http://www.w3.org/2000/svg">
<g clip-path="url(#clip0)">
<path d="M9.56482 18H8.43514C7.52147 18 6.77809 17.2567 6.77809 16.343V15.9608C6.38965 15.8367 6.01225 15.68 5.64968 15.4924L5.37884 15.7633C4.72286 16.42 3.67207 16.4008 3.03514 15.763L2.23671 14.9646C1.59866 14.3273 1.58031 13.2768 2.23692 12.6209L2.50755 12.3503C2.31993 11.9877 2.1633 11.6104 2.03917 11.2219H1.65702C0.743379 11.2219 0 10.4785 0 9.56485V8.43514C0 7.52147 0.743379 6.77813 1.65705 6.77813H2.0392C2.16334 6.38965 2.31996 6.01228 2.50759 5.64971L2.23675 5.37891C1.58052 4.72338 1.59863 3.67284 2.23696 3.03521L3.03546 2.23675C3.67386 1.59746 4.7244 1.5815 5.37912 2.23696L5.64971 2.50755C6.01228 2.31996 6.38968 2.1633 6.77813 2.03917V1.65702C6.77813 0.743344 7.52147 0 8.43518 0H9.56485C10.4785 0 11.2219 0.743344 11.2219 1.65702V2.0392C11.6103 2.1633 11.9877 2.31996 12.3503 2.50759L12.6211 2.23675C13.2771 1.57996 14.3279 1.59922 14.9648 2.23699L15.7633 3.03539C16.4013 3.67274 16.4197 4.72317 15.763 5.37908L15.4924 5.64971C15.68 6.01228 15.8367 6.38961 15.9608 6.77813H16.3429C17.2566 6.77813 18 7.52147 18 8.43514V9.56485C18 10.4785 17.2566 11.2219 16.3429 11.2219H15.9608C15.8367 11.6104 15.68 11.9877 15.4924 12.3503L15.7633 12.6211C16.4195 13.2767 16.4014 14.3272 15.763 14.9648L14.9645 15.7633C14.3261 16.4026 13.2756 16.4185 12.6209 15.7631L12.3503 15.4925C11.9877 15.6801 11.6103 15.8367 11.2219 15.9609V16.3431C11.2219 17.2567 10.4785 18 9.56482 18ZM5.82599 14.3849C6.32967 14.6828 6.87178 14.9078 7.43723 15.0537C7.67011 15.1138 7.83281 15.3238 7.83281 15.5643V16.343C7.83281 16.6751 8.10306 16.9453 8.43518 16.9453H9.56485C9.89698 16.9453 10.1672 16.6751 10.1672 16.343V15.5643C10.1672 15.3238 10.3299 15.1138 10.5628 15.0537C11.1283 14.9078 11.6704 14.6828 12.174 14.3849C12.3813 14.2623 12.6451 14.2957 12.8154 14.4659L13.3669 15.0175C13.6047 15.2556 13.9866 15.25 14.2186 15.0177L15.0176 14.2188C15.249 13.9877 15.2567 13.6057 15.0178 13.3671L14.466 12.8153C14.2958 12.6451 14.2624 12.3812 14.385 12.174C14.6828 11.6704 14.9078 11.1283 15.0538 10.5628C15.1139 10.3299 15.3239 10.1672 15.5644 10.1672H16.343C16.6751 10.1672 16.9453 9.89701 16.9453 9.56489V8.43518C16.9453 8.10306 16.6751 7.83285 16.343 7.83285H15.5644C15.3239 7.83285 15.1139 7.67014 15.0538 7.4373C14.9078 6.87182 14.6828 6.32971 14.385 5.82606C14.2624 5.61885 14.2958 5.35497 14.466 5.18474L15.0176 4.63317C15.256 4.39502 15.2498 4.01323 15.0178 3.78151L14.2188 2.98259C13.9873 2.7507 13.6053 2.74391 13.3672 2.98238L12.8154 3.53415C12.6452 3.70441 12.3813 3.73774 12.1741 3.61519C11.6704 3.31731 11.1283 3.09227 10.5628 2.94634C10.33 2.88626 10.1673 2.67623 10.1673 2.43573V1.65702C10.1673 1.3249 9.89701 1.05469 9.56489 1.05469H8.43521C8.10309 1.05469 7.83285 1.3249 7.83285 1.65702V2.43566C7.83285 2.67616 7.67014 2.88619 7.43727 2.94627C6.87182 3.0922 6.32971 3.31724 5.82602 3.61512C5.61874 3.73764 5.35489 3.70431 5.18467 3.53408L4.63314 2.98252C4.39534 2.74444 4.01344 2.74996 3.78151 2.98227L2.98252 3.78123C2.75112 4.01235 2.74338 4.39425 2.9823 4.63289L3.53408 5.18467C3.70431 5.35489 3.73764 5.61878 3.61512 5.82599C3.31724 6.32964 3.09224 6.87175 2.9463 7.43723C2.88619 7.67011 2.67616 7.83278 2.4357 7.83278H1.65705C1.32493 7.83281 1.05469 8.10302 1.05469 8.43514V9.56485C1.05469 9.89698 1.32493 10.1672 1.65705 10.1672H2.43566C2.67616 10.1672 2.88615 10.3299 2.94627 10.5627C3.0922 11.1282 3.31724 11.6703 3.61508 12.174C3.7376 12.3812 3.70427 12.6451 3.53405 12.8153L2.98248 13.3669C2.74405 13.605 2.75027 13.9868 2.98227 14.2185L3.7812 15.0174C4.01277 15.2493 4.39471 15.2561 4.63286 15.0177L5.1846 14.4659C5.31004 14.3405 5.571 14.2341 5.82599 14.3849Z" fill="white"/>
<path d="M9.00039 12.9168C6.84085 12.9168 5.08398 11.1599 5.08398 9.00039C5.08398 6.84088 6.84085 5.08398 9.00039 5.08398C11.1599 5.08398 12.9168 6.84088 12.9168 9.00039C12.9168 11.1599 11.1599 12.9168 9.00039 12.9168ZM9.00039 6.13867C7.4224 6.13867 6.13867 7.42244 6.13867 9.00039C6.13867 10.5783 7.42244 11.8621 9.00039 11.8621C10.5783 11.8621 11.8621 10.5783 11.8621 9.00039C11.8621 7.42244 10.5784 6.13867 9.00039 6.13867Z" fill="white"/>
</g>
<defs>
<clipPath id="clip0">
<rect width="18" height="18" fill="white"/>
</clipPath>
</defs>
</svg>
