<svg width="58" height="58" viewBox="0 0 58 58" fill="none" xmlns="http://www.w3.org/2000/svg">
<path d="M28.9991 0.555664C23.3734 0.555664 17.8739 2.2239 13.1963 5.34942C8.51859 8.47493 4.8728 12.9173 2.7199 18.1149C0.567012 23.3124 0.00371712 29.0317 1.10125 34.5493C2.19879 40.067 4.90786 45.1353 8.88589 49.1134C12.8639 53.0914 17.9322 55.8005 23.4499 56.898C28.9676 57.9955 34.6868 57.4322 39.8844 55.2793C45.0819 53.1265 49.5243 49.4807 52.6498 44.803C55.7754 40.1253 57.4436 34.6259 57.4436 29.0001C57.4436 21.4562 54.4468 14.2212 49.1124 8.88685C43.778 3.55248 36.5431 0.555664 28.9991 0.555664ZM47.5769 19.4534L24.2169 42.7957L10.4214 29.0001C9.94987 28.5286 9.68499 27.8891 9.68499 27.2223C9.68499 26.5555 9.94987 25.916 10.4214 25.4445C10.8929 24.9731 11.5323 24.7082 12.1991 24.7082C12.8659 24.7082 13.5054 24.9731 13.9769 25.4445L24.2525 35.7201L44.0569 15.9334C44.2904 15.7 44.5675 15.5148 44.8726 15.3884C45.1776 15.2621 45.5045 15.1971 45.8347 15.1971C46.1649 15.1971 46.4918 15.2621 46.7968 15.3884C47.1019 15.5148 47.379 15.7 47.6125 15.9334C47.8459 16.1669 48.0311 16.4441 48.1575 16.7491C48.2838 17.0541 48.3489 17.3811 48.3489 17.7112C48.3489 18.0414 48.2838 18.3683 48.1575 18.6733C48.0311 18.9784 47.8459 19.2555 47.6125 19.489L47.5769 19.4534Z" fill="#D2D7DB"/>
</svg>
