<svg width="36" height="22" viewBox="0 0 36 22" fill="none" xmlns="http://www.w3.org/2000/svg">
  <path d="M28.4961 8.38671C28.0164 6.117 26.7076 4.07319 24.7932 2.60437C22.8789 1.13555 20.4777 0.332851 17.9999 0.333374C13.8728 0.333374 10.2884 2.52004 8.50335 5.72004C6.40445 5.93182 4.46341 6.86032 3.05318 8.32714C1.64296 9.79395 0.863036 11.6956 0.863281 13.6667C0.863281 18.08 4.70474 21.6667 9.43159 21.6667H27.9963C31.9377 21.6667 35.1365 18.68 35.1365 15C35.1365 11.48 32.209 8.62671 28.4961 8.38671ZM27.9963 19H9.43159C6.27559 19 3.71938 16.6134 3.71938 13.6667C3.71938 10.9334 5.9043 8.65337 8.80324 8.37337L10.3313 8.22671L11.0453 6.96004C11.702 5.76641 12.6988 4.76513 13.9258 4.06643C15.1529 3.36774 16.5627 2.99873 17.9999 3.00004C21.7414 3.00004 24.9688 5.48004 25.6971 8.90671L26.1255 10.9067L28.3104 11.0534C29.3839 11.1208 30.3903 11.5654 31.1269 12.2976C31.8634 13.0299 32.2756 13.9955 32.2804 15C32.2804 17.2 30.3525 19 27.9963 19ZM12.2877 12.3334H15.9292V16.3334H20.0706V12.3334H23.7121L17.9999 7.00004L12.2877 12.3334Z" fill="#54616C" />
</svg>
