<svg width="24" height="24" viewBox="0 0 24 24" fill="none" xmlns="http://www.w3.org/2000/svg">
  <path d="M10.2838 17.7115C10.2819 16.2935 10.6878 14.9048 11.4531 13.7109H2.5718C2.23402 13.7108 1.89953 13.7772 1.58743 13.9064C1.27534 14.0356 0.99177 14.225 0.752927 14.4639C0.514084 14.7027 0.324652 14.9863 0.195461 15.2984C0.0662689 15.6105 -0.000149968 15.945 2.54254e-07 16.2827V17.3332C2.54254e-07 17.987 0.205744 18.6248 0.584084 19.1574C2.34662 21.6309 5.2316 22.8551 9.14073 22.8551C10.206 22.8551 11.1947 22.7637 12.1034 22.5808C10.9286 21.2317 10.2822 19.5027 10.2838 17.7138V17.7115Z" fill="#8E9AA4" />
  <path d="M14.8557 5.7151C14.8557 4.19936 14.2536 2.7457 13.1818 1.67391C12.11 0.602125 10.6564 0 9.14064 0C7.6249 0 6.17124 0.602125 5.09945 1.67391C4.02766 2.7457 3.42554 4.19936 3.42554 5.7151C3.42554 7.23084 4.02766 8.6845 5.09945 9.75629C6.17124 10.8281 7.6249 11.4302 9.14064 11.4302C10.6564 11.4302 12.11 10.8281 13.1818 9.75629C14.2536 8.6845 14.8557 7.23084 14.8557 5.7151Z" fill="#8E9AA4" />
  <path d="M24 17.7114C24 16.0441 23.3376 14.4451 22.1587 13.2661C20.9797 12.0871 19.3807 11.4248 17.7134 11.4248C16.0461 11.4248 14.447 12.0871 13.2681 13.2661C12.0891 14.4451 11.4268 16.0441 11.4268 17.7114C11.4268 19.3787 12.0891 20.9778 13.2681 22.1567C14.447 23.3357 16.0461 23.998 17.7134 23.998C19.3807 23.998 20.9797 23.3357 22.1587 22.1567C23.3376 20.9778 24 19.3787 24 17.7114ZM17.6105 13.72L17.7134 13.7108L17.8162 13.72C17.9304 13.7409 18.0356 13.796 18.1177 13.8781C18.1997 13.9602 18.2549 14.0653 18.2757 14.1795L18.2849 14.2824V17.1399H21.147L21.2499 17.1491C21.3641 17.1699 21.4692 17.2251 21.5513 17.3071C21.6334 17.3892 21.6885 17.4944 21.7094 17.6085L21.7185 17.7114L21.7094 17.8143C21.6885 17.9285 21.6334 18.0336 21.5513 18.1157C21.4692 18.1978 21.3641 18.2529 21.2499 18.2738L21.147 18.2829H18.2849V21.1405L18.2757 21.2434C18.2549 21.3575 18.1997 21.4627 18.1177 21.5448C18.0356 21.6268 17.9304 21.682 17.8162 21.7028L17.7134 21.712L17.6105 21.7028C17.4963 21.682 17.3912 21.6268 17.3091 21.5448C17.227 21.4627 17.1719 21.3575 17.151 21.2434L17.1419 21.1405V18.2829H14.2889L14.186 18.2738C14.0718 18.2529 13.9667 18.1978 13.8846 18.1157C13.8025 18.0336 13.7474 17.9285 13.7265 17.8143L13.7174 17.7114L13.7265 17.6085C13.7474 17.4944 13.8025 17.3892 13.8846 17.3071C13.9667 17.2251 14.0718 17.1699 14.186 17.1491L14.2889 17.1399H17.1419V14.2824L17.151 14.1795C17.1719 14.0653 17.227 13.9602 17.3091 13.8781C17.3912 13.796 17.4963 13.7409 17.6105 13.72Z" fill="#8E9AA4" />
</svg>

