<svg width="21" height="24" viewBox="0 0 21 24" fill="none" xmlns="http://www.w3.org/2000/svg">
  <path d="M17.7144 14C18.51 14 19.2731 14.3161 19.8357 14.8787C20.3983 15.4413 20.7144 16.2044 20.7144 17V17.715C20.7144 21.292 16.5044 24 10.7144 24C4.92436 24 0.714355 21.433 0.714355 17.715V17C0.714355 16.2044 1.03043 15.4413 1.59304 14.8787C2.15564 14.3161 2.91871 14 3.71436 14H17.7144ZM10.7144 0C11.5023 -1.17411e-08 12.2825 0.155195 13.0105 0.456723C13.7384 0.758251 14.3998 1.20021 14.957 1.75736C15.5141 2.31451 15.9561 2.97595 16.2576 3.7039C16.5592 4.43185 16.7144 5.21207 16.7144 6C16.7144 6.78793 16.5592 7.56815 16.2576 8.2961C15.9561 9.02405 15.5141 9.68549 14.957 10.2426C14.3998 10.7998 13.7384 11.2417 13.0105 11.5433C12.2825 11.8448 11.5023 12 10.7144 12C9.12306 12 7.59693 11.3679 6.47171 10.2426C5.3465 9.11742 4.71436 7.5913 4.71436 6C4.71436 4.4087 5.3465 2.88258 6.47171 1.75736C7.59693 0.632141 9.12306 2.37122e-08 10.7144 0Z" fill="#8E9AA4" />
</svg>

